<svg xmlns="http://www.w3.org/2000/svg" width="164" height="46.924" viewBox="0 0 164 46.924">
  <g id="logo-TFC-white" transform="translate(-3.537 -1132.303)">
    <g id="Group_41" data-name="Group 41" transform="translate(62.613 1135.795)">
      <g id="Group_79" data-name="Group 79">
        <path id="Path_87" data-name="Path 87" d="M366.674,1158.521h-7.526v-5.2h21.121v5.2h-7.526v19.6h-6.069Z" transform="translate(-359.148 -1153.319)" fill="#f05b24"/>
        <path id="Path_88" data-name="Path 88" d="M500.486,1153.319h15.538v5.2h-9.468v4.508h7.561v5.2h-7.561v4.682h9.954v5.2H500.486Z" transform="translate(-477.006 -1153.319)" fill="#f05b24"/>
        <path id="Path_89" data-name="Path 89" d="M619.07,1153.319h15.191v5.2h-9.122v5.2H632.7v5.2h-7.561v9.191H619.07Z" transform="translate(-575.891 -1153.319)" fill="#f05b24"/>
        <path id="Path_90" data-name="Path 90" d="M729.512,1153.319h6.069v19.6h10.127v5.2h-16.2Z" transform="translate(-667.986 -1153.319)" fill="#f05b24"/>
      </g>
      <g id="Group_78" data-name="Group 78">
        <path id="Path_91" data-name="Path 91" d="M366.8,1331.4h7.353v2.518H369.74v2.518h3.66v2.518h-3.66v4.449H366.8Z" transform="translate(-365.53 -1301.813)" fill="#fff" opacity="0.8"/>
        <path id="Path_92" data-name="Path 92" d="M424.307,1331.4h2.938v7.588a2.088,2.088,0,0,0,4.163,0V1331.4h2.938v7.588c0,2.7-1.981,4.617-5,4.617-3.056,0-5.036-1.914-5.036-4.617Z" transform="translate(-413.482 -1301.813)" fill="#fff" opacity="0.8"/>
        <path id="Path_93" data-name="Path 93" d="M503.74,1331.4h2.938v9.485h4.9v2.518h-7.84Z" transform="translate(-479.72 -1301.813)" fill="#fff" opacity="0.8"/>
        <path id="Path_94" data-name="Path 94" d="M563.67,1331.4h2.938v9.485h4.9v2.518h-7.84Z" transform="translate(-529.694 -1301.813)" fill="#fff" opacity="0.8"/>
        <path id="Path_95" data-name="Path 95" d="M624.439,1330.183a6.254,6.254,0,0,1,4.5,1.7l-1.36,2.216a5.037,5.037,0,0,0-3.005-1.225,3.244,3.244,0,0,0-3.391,3.425,3.414,3.414,0,0,0,3.391,3.609,4.921,4.921,0,0,0,3.19-1.477l1.511,2.149a6.587,6.587,0,0,1-4.835,2.015,6.021,6.021,0,0,1-6.3-6.228A6.107,6.107,0,0,1,624.439,1330.183Z" transform="translate(-575.118 -1300.802)" fill="#fff" opacity="0.8"/>
        <path id="Path_96" data-name="Path 96" d="M698.891,1331.4h2.938v12h-2.938Z" transform="translate(-642.452 -1301.813)" fill="#fff" opacity="0.8"/>
        <path id="Path_97" data-name="Path 97" d="M736.586,1331.4h4.18a6.211,6.211,0,0,1,2.334.285,3.49,3.49,0,0,1,2.216,3.492,3.655,3.655,0,0,1-1.8,3.274v.034a6.851,6.851,0,0,1,.453.722l2.333,4.2h-3.274l-2.132-4.046h-1.377v4.046h-2.938Zm4.214,5.439a1.374,1.374,0,0,0,1.528-1.478c0-.906-.336-1.444-1.813-1.444h-.99v2.921Z" transform="translate(-673.885 -1301.813)" fill="#fff" opacity="0.8"/>
        <path id="Path_98" data-name="Path 98" d="M809.685,1330.183a6.254,6.254,0,0,1,4.5,1.7l-1.36,2.216a5.038,5.038,0,0,0-3.005-1.225,3.244,3.244,0,0,0-3.391,3.425,3.414,3.414,0,0,0,3.391,3.609,4.921,4.921,0,0,0,3.19-1.477l1.511,2.149a6.587,6.587,0,0,1-4.835,2.015,6.021,6.021,0,0,1-6.3-6.228A6.107,6.107,0,0,1,809.685,1330.183Z" transform="translate(-729.59 -1300.802)" fill="#fff" opacity="0.8"/>
        <path id="Path_99" data-name="Path 99" d="M884.137,1331.4h2.938v9.485h4.9v2.518h-7.84Z" transform="translate(-796.924 -1301.813)" fill="#fff" opacity="0.8"/>
        <path id="Path_100" data-name="Path 100" d="M944.065,1331.4h7.521v2.518H947v2.182h3.66v2.518H947v2.266h4.818v2.518h-7.756Z" transform="translate(-846.896 -1301.813)" fill="#fff" opacity="0.8"/>
      </g>
    </g>
    <g id="Group_63" data-name="Group 63">
      <g id="Group_40" data-name="Group 40" transform="translate(3.537 1132.303)">
        <circle id="Ellipse_3" data-name="Ellipse 3" cx="3.163" cy="3.163" r="3.163" transform="translate(20.299 0)" fill="#fff"/>
        <circle id="Ellipse_4" data-name="Ellipse 4" cx="3.162" cy="3.162" r="3.162" transform="translate(10.15 2.72)" fill="#fff"/>
        <circle id="Ellipse_5" data-name="Ellipse 5" cx="3.162" cy="3.162" r="3.162" transform="translate(2.72 10.15)" fill="#fff"/>
        <circle id="Ellipse_6" data-name="Ellipse 6" cx="3.163" cy="3.163" r="3.163" transform="translate(0 20.299)" fill="#fff"/>
        <circle id="Ellipse_7" data-name="Ellipse 7" cx="3.162" cy="3.162" r="3.162" transform="translate(2.72 30.449)" fill="#fff"/>
        <circle id="Ellipse_8" data-name="Ellipse 8" cx="3.162" cy="3.162" r="3.162" transform="translate(10.15 37.879)" fill="#fff"/>
        <circle id="Ellipse_9" data-name="Ellipse 9" cx="3.163" cy="3.163" r="3.163" transform="translate(20.299 40.598)" fill="#fff"/>
        <circle id="Ellipse_10" data-name="Ellipse 10" cx="3.162" cy="3.162" r="3.162" transform="translate(30.449 37.879)" fill="#fff"/>
        <circle id="Ellipse_11" data-name="Ellipse 11" cx="3.162" cy="3.162" r="3.162" transform="translate(37.879 30.449)" fill="#fff"/>
        <circle id="Ellipse_12" data-name="Ellipse 12" cx="3.163" cy="3.163" r="3.163" transform="translate(40.598 20.299)" fill="#fff"/>
        <circle id="Ellipse_13" data-name="Ellipse 13" cx="3.162" cy="3.162" r="3.162" transform="translate(37.879 10.15)" fill="#fff"/>
        <circle id="Ellipse_14" data-name="Ellipse 14" cx="3.162" cy="3.162" r="3.162" transform="translate(30.449 2.72)" fill="#fff"/>
      </g>
      <g id="Group_42" data-name="Group 42" transform="translate(13.587 1142.353)">
        <circle id="Ellipse_15" data-name="Ellipse 15" cx="2.024" cy="2.024" r="2.024" transform="translate(11.388 0)" fill="#f05b24"/>
        <circle id="Ellipse_16" data-name="Ellipse 16" cx="2.024" cy="2.024" r="2.024" transform="translate(5.694 1.526)" fill="#f05b24"/>
        <circle id="Ellipse_17" data-name="Ellipse 17" cx="2.024" cy="2.024" r="2.024" transform="translate(1.526 5.694)" fill="#f05b24"/>
        <circle id="Ellipse_18" data-name="Ellipse 18" cx="2.024" cy="2.024" r="2.024" transform="translate(0 11.388)" fill="#f05b24"/>
        <circle id="Ellipse_19" data-name="Ellipse 19" cx="2.024" cy="2.024" r="2.024" transform="translate(1.526 17.082)" fill="#f05b24"/>
        <circle id="Ellipse_20" data-name="Ellipse 20" cx="2.024" cy="2.024" r="2.024" transform="translate(5.694 21.25)" fill="#f05b24"/>
        <circle id="Ellipse_21" data-name="Ellipse 21" cx="2.024" cy="2.024" r="2.024" transform="translate(11.388 22.776)" fill="#f05b24"/>
        <circle id="Ellipse_22" data-name="Ellipse 22" cx="2.024" cy="2.024" r="2.024" transform="translate(17.082 21.25)" fill="#f05b24"/>
        <circle id="Ellipse_23" data-name="Ellipse 23" cx="2.024" cy="2.024" r="2.024" transform="translate(21.25 17.082)" fill="#f05b24"/>
        <circle id="Ellipse_24" data-name="Ellipse 24" cx="2.024" cy="2.024" r="2.024" transform="translate(22.776 11.388)" fill="#f05b24"/>
        <circle id="Ellipse_25" data-name="Ellipse 25" cx="2.024" cy="2.024" r="2.024" transform="translate(21.25 5.694)" fill="#f05b24"/>
        <circle id="Ellipse_26" data-name="Ellipse 26" cx="2.024" cy="2.024" r="2.024" transform="translate(17.082 1.526)" fill="#f05b24"/>
      </g>
      <g id="Group_43" data-name="Group 43" transform="translate(21.159 1149.925)" opacity="0.5">
        <circle id="Ellipse_27" data-name="Ellipse 27" cx="0.973" cy="0.973" r="0.973" transform="translate(4.867 0)" fill="#f05b24"/>
        <circle id="Ellipse_28" data-name="Ellipse 28" cx="0.973" cy="0.973" r="0.973" transform="translate(2.433 0.652)" fill="#f05b24"/>
        <circle id="Ellipse_29" data-name="Ellipse 29" cx="0.973" cy="0.973" r="0.973" transform="translate(0.652 2.433)" fill="#f05b24"/>
        <circle id="Ellipse_30" data-name="Ellipse 30" cx="0.973" cy="0.973" r="0.973" transform="translate(0 4.867)" fill="#f05b24"/>
        <circle id="Ellipse_31" data-name="Ellipse 31" cx="0.973" cy="0.973" r="0.973" transform="translate(0.652 7.3)" fill="#f05b24"/>
        <circle id="Ellipse_32" data-name="Ellipse 32" cx="0.973" cy="0.973" r="0.973" transform="translate(2.433 9.082)" fill="#f05b24"/>
        <circle id="Ellipse_33" data-name="Ellipse 33" cx="0.973" cy="0.973" r="0.973" transform="translate(4.867 9.734)" fill="#f05b24"/>
        <circle id="Ellipse_34" data-name="Ellipse 34" cx="0.973" cy="0.973" r="0.973" transform="translate(7.3 9.082)" fill="#f05b24"/>
        <circle id="Ellipse_35" data-name="Ellipse 35" cx="0.973" cy="0.973" r="0.973" transform="translate(9.082 7.3)" fill="#f05b24"/>
        <circle id="Ellipse_36" data-name="Ellipse 36" cx="0.973" cy="0.973" r="0.973" transform="translate(9.734 4.867)" fill="#f05b24"/>
        <circle id="Ellipse_37" data-name="Ellipse 37" cx="0.973" cy="0.973" r="0.973" transform="translate(9.082 2.433)" fill="#f05b24"/>
        <circle id="Ellipse_38" data-name="Ellipse 38" cx="0.973" cy="0.973" r="0.973" transform="translate(7.3 0.652)" fill="#f05b24"/>
      </g>
    </g>
  </g>
</svg>
