<?xml version="1.0" encoding="UTF-8"?>
<svg xmlns="http://www.w3.org/2000/svg" xmlns:xlink="http://www.w3.org/1999/xlink" width="346.05pt" height="492.07pt" viewBox="0 0 346.05 492.07" version="1.1">
<g id="surface1">
<path style=" stroke:none;fill-rule:nonzero;fill:rgb(7.499695%,17.999268%,32.499695%);fill-opacity:1;" d="M 326.691406 63.335938 C 321.023438 43.335938 302.023438 36.671875 302.023438 36.671875 C 276.691406 25.003906 243.023438 3.335938 173.023438 0.00390625 C 103.023438 3.335938 69.355469 25.003906 44.023438 36.671875 C 44.023438 36.671875 25.023438 43.335938 19.355469 63.335938 C -3.308594 146.671875 -18.644531 260.003906 48.023438 379.335938 C 114.691406 498.667969 173.023438 492.003906 173.023438 492.003906 C 173.023438 492.003906 231.359375 498.667969 298.023438 379.335938 C 364.691406 260.003906 349.359375 146.671875 326.691406 63.335938 "/>
<path style=" stroke:none;fill-rule:nonzero;fill:rgb(11.399841%,75.299072%,94.499207%);fill-opacity:1;" d="M 312.460938 63.625 C 307.316406 45.851563 290.078125 39.925781 290.078125 39.925781 C 267.089844 29.554688 236.539063 10.300781 173.023438 7.335938 C 109.507813 10.300781 78.957031 29.554688 55.972656 39.925781 C 55.972656 39.925781 38.730469 45.851563 33.589844 63.625 C 13.023438 137.6875 -0.890625 238.414063 59.601563 344.476563 C 120.09375 450.535156 173.023438 444.609375 173.023438 444.609375 C 173.023438 444.609375 225.953125 450.535156 286.449219 344.476563 C 346.941406 238.414063 333.027344 137.6875 312.460938 63.625 "/>
<path style=" stroke:none;fill-rule:nonzero;fill:rgb(100%,100%,100%);fill-opacity:1;" d="M 297.066406 64.523438 C 292.492188 48.777344 277.152344 43.53125 277.152344 43.53125 C 256.703125 34.347656 229.527344 17.292969 173.023438 14.667969 C 116.519531 17.292969 89.34375 34.347656 68.894531 43.53125 C 68.894531 43.53125 53.558594 48.777344 48.984375 64.523438 C 30.6875 130.117188 18.308594 219.328125 72.121094 313.265625 C 125.9375 407.199219 173.023438 401.949219 173.023438 401.949219 C 173.023438 401.949219 220.113281 407.199219 273.925781 313.265625 C 327.738281 219.328125 315.363281 130.117188 297.066406 64.523438 "/>
<path style=" stroke:none;fill-rule:nonzero;fill:rgb(83.898926%,88.999939%,91.398621%);fill-opacity:1;" d="M 194.523438 237.980469 C 197.964844 233.148438 204.550781 234.566406 207.472656 239.273438 C 209.65625 242.796875 212.34375 251.023438 208.898438 260.625 C 208.90625 260.628906 208.914063 260.632813 208.917969 260.632813 C 205.367188 259.589844 202.136719 258.835938 199.867188 257.945313 C 195.640625 256.285156 194.390625 246.546875 194.523438 237.980469 Z M 146.304688 257.945313 C 144.03125 258.835938 139.800781 259.589844 136.25 260.632813 C 136.253906 260.632813 137.265625 260.628906 137.269531 260.625 C 133.824219 251.023438 136.511719 242.796875 138.695313 239.273438 C 141.617188 234.566406 148.203125 233.148438 151.644531 237.980469 C 151.777344 246.546875 150.527344 256.285156 146.304688 257.945313 Z M 297.039063 64.523438 C 292.46875 48.777344 277.128906 43.53125 277.128906 43.53125 C 256.679688 34.347656 229.503906 17.292969 173 14.667969 C 117.355469 17.253906 90.15625 33.828125 69.8125 43.101563 L 70.089844 43.53125 C 70.089844 43.53125 119.976563 20.671875 171.097656 20.671875 C 222.21875 20.671875 274.71875 49.503906 284.886719 59.671875 C 294.726563 69.511719 343.792969 298.664063 192.808594 393.039063 C 194.996094 383.445313 209.324219 375.132813 219.984375 354.96875 C 235.386719 325.832031 236.144531 291.632813 230.453125 276.953125 C 229.246094 273.839844 227.507813 271.328125 225.449219 269.265625 C 225.492188 269.3125 225.539063 269.351563 225.585938 269.398438 C 228.535156 260.070313 232.894531 232.585938 214.859375 224.589844 C 213.941406 224.183594 212.964844 223.863281 211.953125 223.621094 C 212.578125 223.425781 213.128906 223.265625 213.574219 223.15625 C 219.574219 221.699219 222.324219 201.488281 220.335938 199.828125 C 218.6875 198.707031 201.667969 196.582031 172.570313 196.503906 C 143.476563 196.582031 128.480469 198.707031 126.832031 199.828125 C 124.84375 201.488281 127.597656 221.699219 133.597656 223.15625 C 134.039063 223.265625 134.589844 223.425781 135.214844 223.621094 C 134.203125 223.863281 133.226563 224.183594 132.308594 224.589844 C 114.273438 232.585938 118.632813 260.070313 121.585938 269.398438 C 121.628906 269.351563 121.675781 269.3125 121.722656 269.265625 C 119.660156 271.328125 117.921875 273.839844 116.714844 276.953125 C 111.027344 291.632813 111.78125 325.832031 127.183594 354.96875 C 139.3125 377.910156 154.191406 386.171875 152.539063 397.773438 L 159.261719 400.386719 L 159.257813 400.398438 L 159.285156 400.394531 L 160.257813 400.773438 L 160.285156 400.296875 L 184.636719 397.898438 C 182.257813 399.246094 179.835938 400.566406 177.359375 401.847656 C 190.199219 400.617188 229.785156 390.265625 273.902344 313.265625 C 327.714844 219.328125 315.335938 130.117188 297.039063 64.523438 "/>
<path style=" stroke:none;fill-rule:nonzero;fill:rgb(7.499695%,17.999268%,32.499695%);fill-opacity:1;" d="M 215.019531 265.1875 C 214.78125 265.03125 214.542969 264.878906 214.304688 264.734375 C 214.542969 264.878906 214.78125 265.03125 215.019531 265.1875 Z M 216.617188 266.316406 C 216.738281 266.410156 216.863281 266.496094 216.980469 266.59375 C 216.863281 266.496094 216.738281 266.40625 216.617188 266.316406 Z M 215.433594 265.464844 C 215.621094 265.589844 215.808594 265.71875 215.996094 265.851563 C 215.808594 265.71875 215.621094 265.589844 215.433594 265.464844 Z M 219.113281 268.503906 C 219.066406 268.457031 219.019531 268.40625 218.972656 268.359375 C 219.019531 268.40625 219.066406 268.457031 219.113281 268.503906 Z M 149.878906 258.214844 C 145.996094 259.933594 138.960938 261.136719 132.804688 264.878906 C 133.769531 264.289063 134.753906 263.757813 135.742188 263.285156 C 132.675781 253.640625 134.722656 240.542969 139.34375 236.605469 C 143.273438 233.222656 151.570313 233.304688 154.636719 238.160156 C 154.753906 246.765625 153.640625 256.546875 149.878906 258.214844 Z M 131.871094 265.472656 C 132.132813 265.296875 132.394531 265.128906 132.65625 264.964844 C 132.394531 265.128906 132.132813 265.296875 131.871094 265.472656 Z M 128.019531 268.597656 C 127.925781 268.691406 127.832031 268.792969 127.738281 268.890625 C 127.832031 268.792969 127.925781 268.691406 128.019531 268.597656 Z M 129.210938 267.488281 C 129.074219 267.609375 128.9375 267.730469 128.800781 267.851563 C 128.9375 267.730469 129.074219 267.609375 129.210938 267.488281 Z M 130.507813 266.4375 C 130.3125 266.585938 130.113281 266.734375 129.917969 266.894531 C 130.113281 266.734375 130.3125 266.589844 130.507813 266.4375 Z M 131.585938 265.664063 C 131.355469 265.820313 131.125 265.980469 130.898438 266.144531 C 131.125 265.980469 131.355469 265.820313 131.585938 265.664063 Z M 154.625 237.449219 C 154.621094 237.328125 154.617188 237.203125 154.617188 237.078125 C 154.617188 237.203125 154.621094 237.328125 154.625 237.449219 Z M 154.59375 236.382813 C 154.582031 236.066406 154.570313 235.753906 154.558594 235.449219 C 154.570313 235.757813 154.582031 236.066406 154.59375 236.382813 Z M 224.363281 276.996094 C 223.28125 273.898438 221.730469 271.394531 219.902344 269.34375 C 219.929688 269.375 219.960938 269.40625 219.992188 269.4375 C 222.570313 260.050781 226.304688 235.371094 210.195313 227.445313 C 207.960938 226.347656 205.347656 225.90625 202.773438 225.90625 C 198.933594 225.90625 195.167969 226.886719 192.839844 228.117188 C 192.4375 230.660156 192.171875 234.230469 192.136719 238.054688 C 195.164063 233.175781 203.472656 233.035156 207.429688 236.394531 C 212.070313 240.304688 214.1875 253.398438 211.183594 263.054688 C 212.167969 263.515625 213.144531 264.035156 214.097656 264.609375 C 207.933594 260.921875 200.902344 259.761719 197.011719 258.070313 C 190.4375 255.203125 191.753906 227.625 193.777344 224.613281 C 196.097656 221.179688 205.132813 222.136719 209.003906 221.054688 C 214.34375 219.554688 216.679688 202.242188 214.90625 200.585938 C 213.429688 199.46875 199.183594 198.601563 173.261719 198.675781 C 147.34375 198.753906 133.109375 199.710938 131.644531 200.839844 C 129.871094 202.503906 132.324219 219.804688 137.667969 221.273438 C 141.546875 222.332031 150.574219 221.3125 152.910156 224.738281 C 153.648438 225.820313 154.308594 230.101563 154.550781 235.265625 C 154.421875 232.566406 154.179688 230.117188 153.871094 228.230469 C 151.558594 227.03125 147.851563 226.082031 144.054688 226.082031 C 141.441406 226.082031 138.785156 226.53125 136.519531 227.667969 C 120.457031 235.699219 124.339844 260.347656 126.96875 269.71875 C 127.007813 269.671875 127.050781 269.632813 127.089844 269.585938 C 125.257813 271.660156 123.707031 274.183594 122.632813 277.308594 C 117.566406 292.054688 118.238281 326.40625 131.957031 355.671875 C 142.761719 378.71875 157.792969 389.015625 156.324219 400.667969 C 153.933594 419.6875 134.003906 430.027344 137.726563 436.582031 C 141.675781 443.539063 164.648438 445.691406 174.011719 445.667969 C 183.375 445.640625 206.34375 443.34375 210.246094 436.359375 C 213.929688 429.785156 193.933594 419.566406 191.429688 400.566406 C 189.886719 388.914063 204.871094 378.527344 215.539063 355.417969 C 229.0625 326.070313 229.535156 291.714844 224.363281 276.996094 "/>
<path style=" stroke:none;fill-rule:nonzero;fill:rgb(100%,100%,100%);fill-opacity:1;" d="M 191.40625 426.335938 C 187.960938 432.011719 180.738281 432.503906 173.570313 432.503906 C 166.40625 432.503906 159.183594 432.011719 155.738281 426.335938 C 152.90625 421.667969 168.738281 398.667969 173.570313 398.667969 C 178.40625 398.667969 194.238281 421.667969 191.40625 426.335938 Z M 218.738281 270.167969 C 218.738281 270.167969 220.570313 264.503906 221.320313 256.335938 C 222.070313 248.171875 218.65625 227.253906 204.90625 227.253906 C 195.652344 227.253906 194.65625 229.171875 194.65625 229.171875 L 193.65625 235.003906 C 193.65625 235.003906 196.320313 232.171875 203.320313 232.171875 C 210.320313 232.171875 213.40625 239.085938 214.238281 244.503906 C 215.070313 249.921875 214.738281 260.421875 212.488281 264.585938 C 211.238281 266.28125 209.238281 264.335938 208.40625 265.503906 C 207.570313 266.671875 221.738281 269.335938 221.738281 306.003906 C 221.738281 342.667969 199.714844 370.167969 199.714844 370.167969 C 199.714844 370.167969 218.738281 336.003906 218.738281 307.335938 C 218.738281 278.667969 213.570313 273.667969 210.070313 269.835938 C 206.570313 266.003906 193.570313 261.503906 192.070313 258.003906 C 190.570313 254.503906 188.570313 232.335938 191.738281 223.835938 C 193.40625 220.503906 188.90625 222.335938 187.738281 228.835938 C 186.570313 235.335938 187.40625 256.671875 189.90625 259.335938 C 192.40625 262.003906 206.070313 269.667969 207.738281 271.667969 C 209.40625 273.667969 220.90625 319.503906 190.570313 374.835938 C 182.90625 388.167969 173.570313 392.335938 173.570313 392.335938 C 173.570313 392.335938 164.238281 388.167969 156.570313 374.835938 C 126.238281 319.503906 137.738281 273.667969 139.40625 271.667969 C 141.070313 269.667969 154.738281 262.003906 157.238281 259.335938 C 159.738281 256.671875 160.570313 235.335938 159.40625 228.835938 C 158.238281 222.335938 153.738281 220.503906 155.40625 223.835938 C 158.570313 232.335938 156.570313 254.503906 155.070313 258.003906 C 153.570313 261.503906 140.570313 266.003906 137.070313 269.835938 C 133.570313 273.667969 128.40625 278.667969 128.40625 307.335938 C 128.40625 336.003906 147.429688 370.167969 147.429688 370.167969 C 147.429688 370.167969 125.40625 342.667969 125.40625 306.003906 C 125.40625 269.335938 139.570313 266.671875 138.738281 265.503906 C 137.90625 264.335938 135.90625 266.28125 134.65625 264.585938 C 132.40625 260.421875 132.070313 249.921875 132.90625 244.503906 C 133.738281 239.085938 136.820313 232.171875 143.820313 232.171875 C 150.820313 232.171875 153.488281 235.003906 153.488281 235.003906 L 152.488281 229.171875 C 152.488281 229.171875 151.488281 227.253906 142.238281 227.253906 C 128.488281 227.253906 125.070313 248.171875 125.820313 256.335938 C 126.570313 264.503906 128.40625 270.167969 128.40625 270.167969 C 128.40625 270.167969 117.65625 287.003906 122.570313 317.085938 C 132.070313 367.335938 157.945313 379.835938 157.945313 399.382813 C 157.945313 408.425781 149.90625 421.835938 149.90625 421.835938 C 152.40625 421.585938 156.90625 415.835938 156.90625 415.835938 C 156.90625 419.085938 142.320313 429.085938 142.320313 432.335938 C 142.320313 435.585938 173.570313 436.585938 173.570313 436.585938 C 173.570313 436.585938 204.820313 435.585938 204.820313 432.335938 C 204.820313 429.085938 190.238281 419.085938 190.238281 415.835938 C 190.238281 415.835938 194.738281 421.585938 197.238281 421.835938 C 197.238281 421.835938 189.195313 408.425781 189.195313 399.382813 C 189.195313 379.835938 215.070313 367.335938 224.570313 317.085938 C 229.488281 287.003906 218.738281 270.167969 218.738281 270.167969 "/>
<path style=" stroke:none;fill-rule:nonzero;fill:rgb(100%,100%,100%);fill-opacity:1;" d="M 206.238281 201.003906 C 206.238281 201.003906 201.070313 199.835938 173.570313 199.835938 C 146.070313 199.835938 140.90625 201.003906 140.90625 201.003906 C 140.90625 201.003906 140.238281 214.671875 142.238281 218.003906 C 144.238281 221.335938 159.238281 220.003906 173.570313 220.003906 C 187.90625 220.003906 202.90625 221.335938 204.90625 218.003906 C 206.90625 214.671875 206.238281 201.003906 206.238281 201.003906 "/>
<path style=" stroke:none;fill-rule:nonzero;fill:rgb(100%,100%,100%);fill-opacity:1;" d="M 173.570313 412.167969 C 165.40625 412.167969 156.070313 419.167969 157.070313 424.335938 C 158.070313 429.503906 167.632813 429.667969 173.570313 429.667969 C 179.507813 429.667969 189.070313 429.503906 190.070313 424.335938 C 191.070313 419.167969 181.738281 412.167969 173.570313 412.167969 "/>
<path style=" stroke:none;fill-rule:nonzero;fill:rgb(100%,100%,100%);fill-opacity:1;" d="M 202.875 275.707031 C 199.457031 267.46875 188.90625 261.671875 186.238281 258.671875 C 183.570313 255.671875 182.90625 246.003906 183.238281 237.835938 C 183.570313 229.671875 182.238281 226.003906 173.570313 226.003906 C 164.90625 226.003906 163.570313 229.671875 163.90625 237.835938 C 164.238281 246.003906 163.570313 255.671875 160.90625 258.671875 C 158.238281 261.671875 147.6875 267.46875 144.269531 275.707031 C 138.820313 288.835938 139.070313 367.667969 173.570313 367.667969 C 208.070313 367.667969 208.320313 288.835938 202.875 275.707031 "/>
<path style=" stroke:none;fill-rule:nonzero;fill:rgb(7.499695%,17.999268%,32.499695%);fill-opacity:1;" d="M 183.90625 283.667969 C 183.90625 289.375 179.277344 294.003906 173.570313 294.003906 C 167.863281 294.003906 163.238281 289.375 163.238281 283.667969 C 163.238281 277.960938 167.863281 273.335938 173.570313 273.335938 C 179.277344 273.335938 183.90625 277.960938 183.90625 283.667969 "/>
<path style=" stroke:none;fill-rule:nonzero;fill:rgb(83.898926%,88.999939%,91.398621%);fill-opacity:1;" d="M 71.882813 133.664063 C 71.90625 134.109375 71.949219 134.523438 71.988281 134.945313 C 71.570313 134.804688 71.101563 134.695313 70.566406 134.652344 C 71.132813 134.359375 71.558594 134.003906 71.882813 133.664063 Z M 158.851563 123.246094 C 159.144531 123.78125 159.359375 124.457031 159.484375 125.253906 C 159.65625 126.332031 159.742188 127.484375 159.742188 128.6875 C 159.742188 129.816406 159.644531 130.910156 159.457031 131.933594 C 159.304688 132.742188 159.074219 133.433594 158.773438 133.976563 C 158.589844 134.308594 158.371094 134.539063 158.070313 134.734375 C 158 134.777344 157.726563 134.917969 157.023438 134.917969 C 156.109375 134.917969 155.75 134.742188 155.683594 134.707031 C 155.53125 134.621094 155.351563 134.492188 155.160156 134.164063 C 154.867188 133.667969 154.648438 132.996094 154.5 132.179688 C 154.308594 131.097656 154.210938 129.824219 154.210938 128.398438 C 154.210938 127.289063 154.316406 126.246094 154.53125 125.296875 C 154.707031 124.519531 154.960938 123.867188 155.292969 123.34375 C 155.535156 122.960938 155.800781 122.691406 156.128906 122.488281 C 156.199219 122.445313 156.417969 122.308594 156.976563 122.308594 C 157.863281 122.308594 158.15625 122.488281 158.164063 122.492188 C 158.457031 122.683594 158.671875 122.914063 158.851563 123.246094 Z M 191.71875 122.695313 C 191.847656 122.695313 191.949219 122.699219 192.027344 122.707031 C 192.03125 122.742188 192.03125 122.761719 192.03125 122.765625 C 192.03125 122.789063 192.03125 122.8125 192.03125 122.828125 C 191.957031 122.835938 191.871094 122.839844 191.765625 122.839844 L 189.964844 122.839844 L 189.964844 122.695313 Z M 234.800781 132.914063 C 234.8125 132.898438 234.816406 132.882813 234.824219 132.867188 L 234.152344 134.894531 C 233.773438 134.777344 233.351563 134.691406 232.882813 134.652344 C 233.929688 134.109375 234.53125 133.335938 234.800781 132.914063 Z M 49.472656 148.8125 C 51.214844 149.597656 53.261719 149.980469 55.726563 149.980469 L 69.972656 149.980469 C 72.464844 149.980469 73.804688 148.65625 74.378906 147.863281 C 75.023438 146.980469 75.359375 145.90625 75.414063 144.683594 C 75.878906 145.273438 76.371094 145.828125 76.925781 146.328125 C 78.738281 147.953125 81.03125 149.101563 83.738281 149.742188 C 86.042969 150.285156 88.777344 150.558594 91.867188 150.558594 C 92.3125 150.558594 92.894531 150.550781 93.613281 150.53125 C 94.308594 150.515625 95.054688 150.492188 95.859375 150.457031 C 96.714844 150.421875 97.585938 150.359375 98.445313 150.269531 C 99.417969 150.167969 100.339844 150.007813 101.234375 149.785156 C 103.65625 149.152344 105.453125 147.949219 106.582031 146.222656 C 106.972656 147.515625 107.726563 148.328125 108.238281 148.746094 C 108.929688 149.308594 110.128906 149.980469 111.933594 149.980469 L 117.082031 149.980469 C 118.121094 149.980469 119.652344 149.847656 120.957031 148.699219 C 122.105469 147.695313 122.6875 146.273438 122.6875 144.46875 L 122.6875 136.3125 L 122.855469 136.3125 C 123.148438 136.3125 123.351563 136.335938 123.480469 136.359375 C 123.550781 136.503906 123.644531 136.738281 123.734375 137.085938 L 125.851563 145.605469 L 125.949219 145.941406 C 126.613281 147.929688 128.171875 149.359375 130.121094 149.765625 C 130.804688 149.910156 131.488281 149.980469 132.144531 149.980469 L 137.199219 149.980469 C 139.59375 149.980469 141.558594 148.554688 142.214844 146.335938 C 142.382813 145.757813 142.457031 145.175781 142.453125 144.601563 C 145.753906 148.511719 150.566406 150.511719 156.78125 150.511719 C 159.964844 150.511719 162.808594 149.996094 165.246094 148.988281 C 167.8125 147.921875 169.984375 146.332031 171.699219 144.265625 C 172.441406 143.371094 173.082031 142.378906 173.648438 141.324219 L 173.648438 144.46875 C 173.648438 146.828125 174.851563 148.164063 175.5625 148.746094 C 176.25 149.308594 177.449219 149.980469 179.257813 149.980469 L 184.308594 149.980469 C 185.285156 149.980469 186.734375 149.863281 188 148.871094 C 188.894531 148.179688 189.964844 146.851563 189.964844 144.46875 L 189.964844 137.757813 L 191.863281 137.757813 C 195.320313 137.757813 198.109375 137.183594 200.394531 136.007813 C 202.078125 135.140625 203.5 134.097656 204.640625 132.898438 L 204.640625 136.625 C 204.640625 138.074219 204.8125 139.515625 205.152344 140.910156 C 205.5625 142.617188 206.328125 144.164063 207.417969 145.515625 C 208.535156 146.902344 210.007813 148.011719 211.789063 148.8125 C 213.53125 149.597656 215.574219 149.980469 218.039063 149.980469 L 232.285156 149.980469 C 233.105469 149.980469 233.789063 149.828125 234.375 149.609375 C 234.992188 149.84375 235.660156 149.980469 236.375 149.980469 L 242.007813 149.980469 C 243.515625 149.980469 244.785156 149.566406 245.804688 148.742188 C 246.679688 148.019531 247.304688 147.050781 247.65625 145.886719 L 248.554688 142.953125 L 252.902344 142.953125 L 253.804688 145.96875 C 254.3125 147.746094 255.550781 149.078125 257.214844 149.632813 C 257.921875 149.867188 258.675781 149.980469 259.523438 149.980469 L 265.25 149.980469 C 266.332031 149.980469 267.320313 149.675781 268.140625 149.148438 C 268.855469 149.585938 269.878906 149.980469 271.265625 149.980469 L 276.316406 149.980469 C 277.898438 149.980469 279.203125 149.535156 280.191406 148.65625 C 280.980469 147.957031 281.925781 146.664063 281.925781 144.46875 L 281.925781 139.332031 L 286.199219 145.800781 C 286.59375 146.410156 286.945313 146.902344 287.277344 147.304688 C 287.816406 147.957031 288.429688 148.5 289.082031 148.90625 C 289.875 149.40625 290.765625 149.726563 291.726563 149.863281 C 292.28125 149.941406 292.890625 149.980469 293.59375 149.980469 L 295.613281 149.980469 C 299.09375 149.980469 300.898438 148.457031 301.800781 147.175781 C 302.757813 145.8125 303.242188 144.125 303.242188 142.160156 L 303.242188 112.757813 C 303.242188 109.617188 300.832031 107.246094 297.636719 107.246094 L 292.582031 107.246094 C 290.898438 107.246094 289.527344 107.765625 288.511719 108.78125 C 287.808594 109.480469 286.976563 110.738281 286.976563 112.757813 L 286.976563 117.992188 L 282.703125 111.480469 C 282.347656 110.929688 282.011719 110.449219 281.699219 110.046875 C 281.15625 109.34375 280.523438 108.765625 279.800781 108.308594 C 279.011719 107.820313 278.125 107.503906 277.164063 107.363281 C 276.613281 107.285156 276.007813 107.246094 275.304688 107.246094 L 273.285156 107.246094 C 270.773438 107.246094 268.824219 107.996094 267.492188 109.476563 C 266.257813 110.84375 265.65625 112.6875 265.65625 115.117188 L 265.65625 129.570313 L 260.136719 112.921875 C 259.839844 112.039063 259.515625 111.304688 259.136719 110.65625 C 258.578125 109.71875 257.863281 108.953125 257.015625 108.390625 C 256.140625 107.804688 255.148438 107.441406 254.066406 107.308594 C 253.492188 107.234375 252.851563 107.199219 252.113281 107.199219 L 249.226563 107.199219 C 248.429688 107.199219 247.679688 107.273438 246.988281 107.421875 C 246.03125 107.632813 245.15625 108.011719 244.390625 108.554688 C 243.621094 109.097656 242.964844 109.804688 242.441406 110.648438 C 242.027344 111.316406 241.691406 112.085938 241.417969 112.996094 L 235.632813 130.441406 C 235.660156 130.183594 235.679688 129.921875 235.679688 129.648438 L 235.679688 125.894531 C 235.679688 124.488281 235.359375 123.347656 234.695313 122.398438 C 234.605469 122.269531 234.496094 122.128906 234.367188 121.980469 C 235.09375 121.617188 235.59375 121.160156 235.894531 120.816406 C 236.773438 119.824219 237.21875 118.539063 237.21875 116.992188 L 237.21875 112.902344 C 237.21875 111.5 236.898438 110.359375 236.234375 109.402344 C 235.671875 108.597656 234.34375 107.246094 231.804688 107.246094 L 217.992188 107.246094 C 215.734375 107.246094 213.726563 107.628906 212.03125 108.378906 C 210.269531 109.160156 208.800781 110.25 207.667969 111.621094 C 207.089844 112.320313 206.597656 113.082031 206.1875 113.882813 C 205.609375 113.007813 204.945313 112.199219 204.179688 111.46875 C 202.769531 110.128906 201.0625 109.074219 199.113281 108.335938 C 197.214844 107.613281 195.097656 107.246094 192.824219 107.246094 L 181.035156 107.246094 C 177.710938 107.246094 175.96875 108.6875 175.085938 109.894531 C 174.132813 111.207031 173.648438 112.816406 173.648438 114.683594 L 173.648438 116.085938 C 173.0625 114.988281 172.394531 113.964844 171.628906 113.039063 C 169.9375 110.996094 167.796875 109.414063 165.265625 108.332031 C 162.832031 107.292969 160.027344 106.765625 156.929688 106.765625 C 154.003906 106.765625 151.304688 107.296875 148.910156 108.347656 C 146.46875 109.421875 144.359375 110.976563 142.640625 112.976563 C 141.703125 114.0625 140.902344 115.300781 140.210938 116.644531 C 139.503906 114.503906 138.320313 112.621094 136.667969 111.089844 C 133.90625 108.539063 130.152344 107.246094 125.503906 107.246094 L 113.714844 107.246094 C 110.460938 107.246094 108.726563 108.601563 107.84375 109.742188 C 107.738281 109.875 107.664063 110.03125 107.570313 110.171875 C 107.386719 109.785156 107.140625 109.386719 106.808594 109.003906 C 105.804688 107.871094 104.371094 107.296875 102.550781 107.296875 L 97.449219 107.296875 C 95.636719 107.296875 94.4375 107.96875 93.765625 108.523438 C 93.046875 109.109375 91.84375 110.441406 91.84375 112.804688 L 91.84375 135.148438 C 91.636719 135.152344 91.46875 135.15625 91.335938 135.15625 C 89.921875 135.15625 89.203125 135 88.898438 134.902344 C 88.660156 134.832031 88.570313 134.769531 88.570313 134.769531 C 88.570313 134.769531 88.566406 134.769531 88.570313 134.769531 C 88.539063 134.734375 88.46875 134.601563 88.410156 134.34375 C 88.261719 133.699219 88.1875 132.882813 88.1875 131.910156 L 88.1875 112.804688 C 88.1875 110.621094 87.25 109.328125 86.445313 108.613281 C 84.953125 107.296875 83.128906 107.296875 82.53125 107.296875 L 77.382813 107.296875 C 75.707031 107.296875 74.542969 107.902344 73.867188 108.410156 C 73.730469 108.511719 73.574219 108.648438 73.414063 108.800781 C 72.695313 108.0625 71.460938 107.246094 69.492188 107.246094 L 55.679688 107.246094 C 53.417969 107.246094 51.414063 107.628906 49.71875 108.378906 C 47.957031 109.160156 46.488281 110.25 45.355469 111.621094 C 44.285156 112.914063 43.492188 114.398438 43 116.023438 C 42.550781 117.5 42.324219 119.058594 42.324219 120.648438 L 42.324219 136.625 C 42.324219 138.074219 42.496094 139.515625 42.835938 140.910156 C 43.25 142.617188 44.011719 144.164063 45.105469 145.515625 C 46.222656 146.902344 47.695313 148.011719 49.472656 148.8125 "/>
<path style=" stroke:none;fill-rule:nonzero;fill:rgb(83.898926%,88.999939%,91.398621%);fill-opacity:1;" d="M 277.273438 174.679688 C 277.570313 174.925781 277.878906 175.164063 278.203125 175.394531 C 277.675781 175.421875 277.21875 175.523438 276.851563 175.644531 C 276.585938 175.734375 276.289063 175.863281 275.988281 176.035156 L 275.988281 173.460938 C 276.386719 173.882813 276.804688 174.296875 277.273438 174.679688 Z M 227.832031 167.347656 C 228.023438 167.46875 228.160156 167.617188 228.28125 167.839844 C 228.519531 168.273438 228.691406 168.824219 228.796875 169.484375 C 228.945313 170.421875 229.019531 171.425781 229.019531 172.472656 C 229.019531 173.449219 228.9375 174.394531 228.773438 175.289063 C 228.648438 175.960938 228.457031 176.527344 228.214844 176.96875 C 228.089844 177.191406 227.949219 177.34375 227.746094 177.472656 C 227.746094 177.472656 227.570313 177.5625 227.070313 177.5625 C 226.359375 177.5625 226.109375 177.4375 226.101563 177.433594 C 226.027344 177.390625 225.933594 177.328125 225.816406 177.128906 C 225.589844 176.738281 225.40625 176.179688 225.285156 175.511719 C 225.117188 174.570313 225.035156 173.464844 225.035156 172.214844 C 225.035156 171.265625 225.128906 170.367188 225.3125 169.546875 C 225.453125 168.910156 225.660156 168.375 225.925781 167.960938 C 226.101563 167.679688 226.292969 167.484375 226.519531 167.34375 C 226.644531 167.265625 226.890625 167.257813 227.027344 167.257813 C 227.597656 167.257813 227.824219 167.347656 227.832031 167.347656 Z M 71.425781 167.183594 L 71.425781 176.488281 C 70.59375 176.019531 68.929688 175.421875 66.707031 176.328125 C 65.882813 176.636719 64.992188 176.9375 64.054688 177.226563 C 63.433594 177.421875 62.652344 177.519531 61.738281 177.519531 C 60.769531 177.519531 60.324219 177.355469 60.171875 177.28125 C 59.914063 177.15625 59.730469 177.007813 59.585938 176.796875 C 59.355469 176.472656 59.179688 176.035156 59.066406 175.496094 C 58.886719 174.660156 58.796875 173.6875 58.796875 172.601563 C 58.796875 171.59375 58.90625 170.671875 59.121094 169.863281 C 59.296875 169.199219 59.539063 168.640625 59.847656 168.207031 C 60.074219 167.886719 60.324219 167.65625 60.632813 167.484375 C 60.859375 167.359375 61.164063 167.300781 61.566406 167.300781 C 62.335938 167.300781 63.027344 167.359375 63.605469 167.480469 C 64.285156 167.625 65.054688 167.851563 65.898438 168.152344 C 67.554688 168.746094 69.070313 168.679688 70.410156 167.953125 C 70.785156 167.746094 71.117188 167.480469 71.425781 167.183594 Z M 302.496094 173.339844 C 301.722656 171.800781 300.65625 170.445313 299.324219 169.304688 C 298.894531 168.9375 298.429688 168.585938 297.941406 168.25 C 299.261719 167.675781 300.21875 166.566406 300.808594 164.917969 L 301.945313 161.644531 C 302.222656 160.8125 302.546875 159.546875 302.164063 158.152344 C 301.894531 157.160156 301.171875 155.777344 299.253906 154.816406 C 298.414063 154.398438 297.488281 154.027344 296.488281 153.710938 C 295.566406 153.421875 294.59375 153.171875 293.605469 152.972656 C 292.613281 152.769531 291.589844 152.617188 290.570313 152.515625 C 287.144531 152.175781 284.066406 152.417969 281.546875 153.3125 C 279.667969 153.980469 278.0625 154.9375 276.777344 156.15625 C 276.457031 156.460938 276.15625 156.777344 275.878906 157.109375 C 275.375 154.609375 273.234375 152.839844 270.5 152.839844 L 265.984375 152.839844 C 264.347656 152.839844 263.011719 153.347656 262.003906 154.355469 C 261.316406 155.042969 260.496094 156.277344 260.496094 158.242188 L 260.496094 161.316406 L 257.558594 156.839844 C 257.222656 156.320313 256.925781 155.890625 256.636719 155.519531 C 256.113281 154.847656 255.503906 154.289063 254.820313 153.863281 C 254.058594 153.386719 253.203125 153.078125 252.28125 152.945313 C 251.761719 152.871094 251.195313 152.839844 250.546875 152.839844 L 248.742188 152.839844 C 246.359375 152.839844 244.5 153.558594 243.210938 154.984375 C 242.171875 156.136719 241.601563 157.625 241.472656 159.515625 C 241.164063 159.054688 240.839844 158.609375 240.492188 158.1875 C 238.929688 156.304688 236.957031 154.84375 234.621094 153.84375 C 232.390625 152.890625 229.820313 152.40625 226.984375 152.40625 C 224.304688 152.40625 221.832031 152.898438 219.628906 153.863281 C 217.382813 154.847656 215.4375 156.28125 213.851563 158.125 C 213.179688 158.910156 212.585938 159.78125 212.050781 160.710938 L 212.050781 158.285156 C 212.050781 156.160156 211.128906 154.890625 210.332031 154.179688 C 208.863281 152.882813 207.097656 152.882813 206.515625 152.882813 L 201.960938 152.882813 C 200.203125 152.882813 199.027344 153.539063 198.351563 154.09375 C 197.785156 154.558594 196.925781 155.507813 196.601563 157.054688 C 196.503906 156.953125 196.410156 156.839844 196.308594 156.742188 C 195.003906 155.5 193.425781 154.523438 191.621094 153.839844 C 189.871094 153.175781 187.921875 152.839844 185.835938 152.839844 L 175.300781 152.839844 C 172.125 152.839844 170.445313 154.230469 169.597656 155.398438 C 169.5625 155.445313 169.542969 155.496094 169.511719 155.539063 C 169.226563 155.148438 168.898438 154.792969 168.523438 154.476563 C 167.230469 153.390625 165.558594 152.839844 163.554688 152.839844 L 161.445313 152.839844 C 159.5 152.839844 157.957031 153.289063 156.722656 154.226563 C 155.679688 155.015625 154.851563 156.125 154.195313 157.605469 L 150.890625 164.980469 L 147.53125 157.46875 C 146.875 156.050781 146.082031 154.992188 145.109375 154.234375 C 143.914063 153.308594 142.386719 152.839844 140.5625 152.839844 L 138.066406 152.839844 C 135.175781 152.839844 133.5 154.011719 132.601563 155.003906 C 131.410156 156.3125 130.808594 158.109375 130.808594 160.347656 L 130.808594 170.300781 L 126.804688 158.234375 C 126.53125 157.410156 126.226563 156.722656 125.871094 156.117188 C 125.339844 155.21875 124.652344 154.484375 123.835938 153.941406 C 122.992188 153.378906 122.035156 153.023438 120.988281 152.894531 C 120.453125 152.828125 119.863281 152.796875 119.183594 152.796875 L 116.605469 152.796875 C 115.855469 152.796875 115.152344 152.863281 114.507813 153.003906 C 113.585938 153.207031 112.746094 153.570313 112.015625 154.089844 C 111.269531 154.613281 110.636719 155.292969 110.136719 156.101563 C 109.746094 156.734375 109.429688 157.457031 109.171875 158.308594 L 105.195313 170.300781 L 105.195313 158.285156 C 105.195313 156.152344 104.269531 154.882813 103.476563 154.179688 C 102.007813 152.882813 100.242188 152.882813 99.660156 152.882813 L 95.148438 152.882813 C 93.628906 152.882813 92.355469 153.335938 91.359375 154.230469 C 90.722656 154.804688 89.65625 156.09375 89.65625 158.285156 L 89.65625 164.492188 L 87.003906 164.492188 L 87.003906 158.285156 C 87.003906 156.160156 86.085938 154.890625 85.289063 154.179688 C 83.820313 152.882813 82.054688 152.882813 81.472656 152.882813 L 76.914063 152.882813 C 75.15625 152.882813 73.984375 153.539063 73.308594 154.09375 C 73.027344 154.324219 72.675781 154.675781 72.347656 155.15625 C 72.195313 155.054688 72.039063 154.957031 71.867188 154.859375 C 70.089844 153.878906 68.226563 153.210938 66.332031 152.882813 C 64.675781 152.597656 62.972656 152.449219 61.265625 152.449219 C 58.585938 152.449219 56.078125 152.953125 53.804688 153.945313 C 51.496094 154.957031 49.496094 156.414063 47.859375 158.289063 C 46.28125 160.089844 45.042969 162.25 44.183594 164.707031 C 43.34375 167.097656 42.917969 169.753906 42.917969 172.601563 C 42.917969 175.382813 43.242188 177.949219 43.878906 180.234375 C 44.578125 182.753906 45.699219 184.949219 47.214844 186.757813 C 48.785156 188.632813 50.785156 190.082031 53.164063 191.0625 C 55.410156 191.984375 58.03125 192.453125 60.964844 192.453125 C 62.898438 192.453125 64.886719 192.261719 66.867188 191.878906 C 68.800781 191.503906 70.664063 190.808594 72.433594 189.832031 C 72.734375 190.25 73.054688 190.558594 73.308594 190.769531 C 73.984375 191.320313 75.15625 191.980469 76.914063 191.980469 L 81.472656 191.980469 C 82.054688 191.980469 83.832031 191.980469 85.296875 190.675781 C 86.078125 189.984375 87.003906 188.714844 87.003906 186.578125 L 87.003906 179.039063 L 89.65625 179.039063 L 89.65625 186.578125 C 89.65625 188.773438 90.726563 190.0625 91.359375 190.632813 C 92.355469 191.527344 93.628906 191.980469 95.148438 191.980469 L 99.660156 191.980469 C 100.121094 191.980469 101.324219 191.96875 102.535156 191.324219 C 103.296875 191.742188 104.171875 191.980469 105.121094 191.980469 L 110.152344 191.980469 C 111.617188 191.980469 112.855469 191.574219 113.847656 190.769531 C 114.707031 190.058594 115.320313 189.113281 115.660156 187.984375 L 116.359375 185.703125 L 119.535156 185.703125 L 120.238281 188.046875 C 120.734375 189.792969 121.953125 191.101563 123.589844 191.644531 C 124.269531 191.871094 124.996094 191.980469 125.804688 191.980469 L 130.921875 191.980469 C 131.851563 191.980469 132.71875 191.742188 133.46875 191.324219 C 133.496094 191.34375 133.523438 191.363281 133.554688 191.378906 C 134.355469 191.777344 135.277344 191.980469 136.296875 191.980469 L 140.683594 191.980469 C 141.894531 191.980469 142.902344 191.730469 143.773438 191.210938 C 144.558594 190.738281 145.804688 189.679688 146.105469 187.59375 C 147.089844 188.164063 148.285156 188.453125 149.671875 188.453125 L 152.035156 188.453125 C 153.414063 188.453125 154.621094 188.152344 155.640625 187.554688 C 155.972656 189.863281 157.480469 190.933594 158.171875 191.308594 C 159.007813 191.761719 159.941406 191.980469 161.03125 191.980469 L 165.316406 191.980469 C 166.527344 191.980469 167.535156 191.730469 168.40625 191.214844 C 168.742188 191.011719 169.164063 190.699219 169.5625 190.246094 C 169.753906 190.460938 169.941406 190.636719 170.101563 190.769531 C 170.777344 191.320313 171.949219 191.980469 173.707031 191.980469 L 178.222656 191.980469 C 178.765625 191.980469 180.414063 191.980469 181.820313 190.886719 C 182.703125 190.199219 183.753906 188.894531 183.753906 186.578125 L 183.753906 181.058594 L 184.972656 181.058594 C 188.136719 181.058594 190.703125 180.53125 192.816406 179.441406 C 194.246094 178.707031 195.460938 177.820313 196.46875 176.816406 L 196.46875 186.578125 C 196.46875 188.882813 197.652344 190.195313 198.351563 190.769531 C 199.027344 191.320313 200.203125 191.980469 201.960938 191.980469 L 206.515625 191.980469 C 207.101563 191.980469 208.875 191.980469 210.347656 190.671875 C 211.125 189.976563 212.050781 188.707031 212.050781 186.578125 L 212.050781 184.667969 C 212.46875 185.394531 212.921875 186.089844 213.433594 186.730469 C 216.484375 190.527344 221 192.453125 226.855469 192.453125 C 229.761719 192.453125 232.367188 191.984375 234.601563 191.058594 C 236.964844 190.074219 238.964844 188.609375 240.554688 186.699219 C 240.871094 186.3125 241.164063 185.902344 241.445313 185.488281 L 241.445313 186.578125 C 241.445313 188.886719 242.632813 190.199219 243.328125 190.769531 C 244.007813 191.320313 245.179688 191.980469 246.9375 191.980469 L 251.449219 191.980469 C 252.988281 191.980469 254.261719 191.539063 255.230469 190.675781 C 256.011719 189.984375 256.941406 188.714844 256.941406 186.578125 L 256.941406 183.578125 L 259.875 188.019531 C 260.238281 188.582031 260.566406 189.042969 260.875 189.414063 C 261.386719 190.039063 261.976563 190.558594 262.597656 190.941406 C 263.363281 191.425781 264.222656 191.738281 265.15625 191.871094 C 265.671875 191.945313 266.238281 191.980469 266.886719 191.980469 L 268.695313 191.980469 C 272.007813 191.980469 273.738281 190.511719 274.609375 189.273438 C 275.566406 189.828125 276.59375 190.320313 277.691406 190.722656 C 278.820313 191.132813 279.992188 191.46875 281.175781 191.726563 C 282.324219 191.976563 283.5 192.164063 284.671875 192.28125 C 285.816406 192.394531 286.9375 192.453125 288 192.453125 C 290.046875 192.453125 291.976563 192.214844 293.742188 191.742188 C 295.699219 191.21875 297.421875 190.394531 298.859375 189.292969 C 300.390625 188.121094 301.601563 186.640625 302.453125 184.890625 C 303.296875 183.160156 303.722656 181.164063 303.722656 178.96875 C 303.722656 176.867188 303.3125 174.976563 302.496094 173.339844 "/>
<path style=" stroke:none;fill-rule:nonzero;fill:rgb(7.499695%,17.999268%,32.499695%);fill-opacity:1;" d="M 70.742188 145.214844 C 70.613281 145.394531 70.355469 145.480469 69.972656 145.480469 L 55.726563 145.480469 C 53.929688 145.480469 52.464844 145.226563 51.324219 144.710938 C 50.183594 144.199219 49.277344 143.523438 48.605469 142.691406 C 47.929688 141.855469 47.464844 140.910156 47.210938 139.851563 C 46.953125 138.792969 46.824219 137.71875 46.824219 136.625 L 46.824219 120.648438 C 46.824219 119.496094 46.984375 118.386719 47.304688 117.328125 C 47.625 116.269531 48.132813 115.324219 48.824219 114.488281 C 49.511719 113.65625 50.417969 112.992188 51.539063 112.492188 C 52.664063 111.996094 54.042969 111.746094 55.679688 111.746094 L 69.492188 111.746094 C 69.875 111.746094 70.125 111.828125 70.234375 111.988281 C 70.347656 112.148438 70.40625 112.453125 70.40625 112.902344 L 70.40625 116.992188 C 70.40625 117.410156 70.339844 117.691406 70.210938 117.835938 C 70.085938 117.980469 69.84375 118.050781 69.492188 118.050781 L 57.269531 118.050781 C 56.015625 118.050781 55.179688 118.339844 54.765625 118.917969 C 54.347656 119.496094 54.140625 120.199219 54.140625 121.035156 L 54.140625 124.738281 L 67.949219 124.738281 C 68.335938 124.738281 68.582031 124.820313 68.695313 124.980469 C 68.808594 125.140625 68.863281 125.445313 68.863281 125.894531 L 68.863281 129.648438 C 68.863281 130.035156 68.808594 130.316406 68.695313 130.492188 C 68.582031 130.667969 68.335938 130.753906 67.949219 130.753906 L 54.140625 130.753906 L 54.140625 136.242188 C 54.140625 137.363281 54.40625 138.125 54.933594 138.527344 C 55.464844 138.929688 56.238281 139.128906 57.269531 139.128906 L 69.972656 139.128906 C 70.386719 139.128906 70.652344 139.199219 70.765625 139.34375 C 70.878906 139.488281 70.933594 139.804688 70.933594 140.285156 L 70.933594 144.375 C 70.933594 144.757813 70.871094 145.039063 70.742188 145.214844 "/>
<path style=" stroke:none;fill-rule:nonzero;fill:rgb(7.499695%,17.999268%,32.499695%);fill-opacity:1;" d="M 103.609375 140.8125 C 103.609375 141.9375 103.359375 142.898438 102.863281 143.699219 C 102.363281 144.503906 101.441406 145.078125 100.097656 145.433594 C 99.453125 145.59375 98.75 145.714844 97.976563 145.792969 C 97.207031 145.871094 96.4375 145.929688 95.667969 145.960938 C 94.898438 145.992188 94.175781 146.019531 93.503906 146.035156 C 92.828125 146.050781 92.285156 146.058594 91.867188 146.058594 C 89.105469 146.058594 86.742188 145.824219 84.769531 145.359375 C 82.796875 144.894531 81.183594 144.101563 79.933594 142.976563 C 78.679688 141.855469 77.765625 140.363281 77.191406 138.503906 C 76.613281 136.644531 76.324219 134.300781 76.324219 131.476563 L 76.277344 112.804688 C 76.277344 112.421875 76.371094 112.15625 76.5625 112.011719 C 76.757813 111.867188 77.027344 111.796875 77.382813 111.796875 L 82.53125 111.796875 C 83.011719 111.796875 83.324219 111.859375 83.46875 111.988281 C 83.613281 112.117188 83.6875 112.390625 83.6875 112.804688 L 83.6875 131.910156 C 83.6875 133.226563 83.796875 134.371094 84.023438 135.351563 C 84.246094 136.328125 84.648438 137.140625 85.226563 137.78125 C 85.804688 138.421875 86.582031 138.894531 87.558594 139.199219 C 88.539063 139.507813 89.796875 139.65625 91.335938 139.65625 C 91.5625 139.65625 91.867188 139.652344 92.253906 139.632813 C 92.636719 139.617188 93.0625 139.601563 93.527344 139.585938 C 93.992188 139.570313 94.472656 139.539063 94.96875 139.488281 C 95.46875 139.441406 95.925781 139.371094 96.34375 139.273438 L 96.34375 112.804688 C 96.34375 112.421875 96.429688 112.15625 96.605469 112.011719 C 96.78125 111.867188 97.0625 111.796875 97.449219 111.796875 L 102.550781 111.796875 C 103.03125 111.796875 103.328125 111.859375 103.441406 111.988281 C 103.550781 112.117188 103.609375 112.390625 103.609375 112.804688 L 103.609375 140.8125 "/>
<path style=" stroke:none;fill-rule:nonzero;fill:rgb(7.499695%,17.999268%,32.499695%);fill-opacity:1;" d="M 128.96875 121.996094 C 128.96875 121.582031 128.902344 121.148438 128.777344 120.699219 C 128.648438 120.25 128.429688 119.839844 128.128906 119.472656 C 127.820313 119.101563 127.398438 118.796875 126.851563 118.558594 C 126.304688 118.316406 125.617188 118.195313 124.78125 118.195313 L 118.238281 118.195313 L 118.238281 125.894531 L 124.636719 125.894531 C 126.050781 125.894531 127.125 125.535156 127.863281 124.8125 C 128.597656 124.089844 128.96875 123.152344 128.96875 121.996094 Z M 132.050781 129.695313 C 133.140625 130.179688 133.910156 130.859375 134.359375 131.742188 C 134.808594 132.625 135.175781 133.628906 135.464844 134.75 L 137.921875 144.375 C 137.984375 144.566406 137.976563 144.800781 137.894531 145.070313 C 137.816406 145.34375 137.582031 145.480469 137.199219 145.480469 L 132.144531 145.480469 C 131.789063 145.480469 131.421875 145.441406 131.039063 145.359375 C 130.652344 145.28125 130.378906 145 130.21875 144.519531 L 128.101563 136 C 127.683594 134.429688 127.066406 133.339844 126.25 132.726563 C 125.433594 132.121094 124.300781 131.8125 122.855469 131.8125 L 118.1875 131.8125 L 118.1875 144.46875 C 118.1875 144.921875 118.125 145.199219 117.996094 145.3125 C 117.867188 145.425781 117.5625 145.480469 117.082031 145.480469 L 111.933594 145.480469 C 111.550781 145.480469 111.265625 145.410156 111.09375 145.265625 C 110.914063 145.121094 110.828125 144.855469 110.828125 144.46875 L 110.828125 114.683594 C 110.828125 113.71875 111.019531 112.992188 111.402344 112.492188 C 111.789063 111.996094 112.558594 111.746094 113.714844 111.746094 L 125.503906 111.746094 C 129 111.746094 131.703125 112.628906 133.613281 114.394531 C 135.519531 116.160156 136.476563 118.53125 136.476563 121.515625 C 136.476563 123.152344 136.089844 124.691406 135.320313 126.136719 C 134.550781 127.578125 133.445313 128.6875 132 129.457031 L 132.050781 129.695313 "/>
<path style=" stroke:none;fill-rule:nonzero;fill:rgb(7.499695%,17.999268%,32.499695%);fill-opacity:1;" d="M 164.242188 128.6875 C 164.242188 127.242188 164.136719 125.863281 163.929688 124.546875 C 163.71875 123.234375 163.34375 122.078125 162.796875 121.082031 C 162.253906 120.089844 161.515625 119.296875 160.585938 118.699219 C 159.652344 118.109375 158.449219 117.808594 156.976563 117.808594 C 155.757813 117.808594 154.691406 118.09375 153.773438 118.652344 C 152.859375 119.214844 152.097656 119.976563 151.488281 120.9375 C 150.878906 121.902344 150.429688 123.023438 150.140625 124.308594 C 149.851563 125.589844 149.710938 126.953125 149.710938 128.398438 C 149.710938 130.097656 149.828125 131.621094 150.070313 132.96875 C 150.3125 134.316406 150.710938 135.472656 151.273438 136.433594 C 151.835938 137.394531 152.578125 138.136719 153.511719 138.648438 C 154.441406 139.160156 155.613281 139.417969 157.023438 139.417969 C 158.402344 139.417969 159.558594 139.121094 160.488281 138.527344 C 161.417969 137.933594 162.15625 137.148438 162.703125 136.167969 C 163.246094 135.191406 163.640625 134.050781 163.882813 132.753906 C 164.121094 131.453125 164.242188 130.097656 164.242188 128.6875 Z M 171.894531 128.542969 C 171.894531 131.300781 171.597656 133.757813 171.003906 135.90625 C 170.410156 138.054688 169.488281 139.882813 168.234375 141.390625 C 166.984375 142.898438 165.414063 144.046875 163.519531 144.832031 C 161.628906 145.617188 159.382813 146.011719 156.78125 146.011719 C 151.808594 146.011719 148.113281 144.503906 145.691406 141.488281 C 143.269531 138.472656 142.058594 134.203125 142.058594 128.6875 C 142.058594 125.992188 142.402344 123.5625 143.09375 121.394531 C 143.78125 119.230469 144.769531 117.402344 146.050781 115.910156 C 147.335938 114.417969 148.890625 113.269531 150.71875 112.46875 C 152.546875 111.667969 154.617188 111.265625 156.929688 111.265625 C 159.429688 111.265625 161.617188 111.667969 163.496094 112.46875 C 165.371094 113.269531 166.929688 114.417969 168.164063 115.910156 C 169.398438 117.402344 170.328125 119.214844 170.953125 121.347656 C 171.578125 123.480469 171.894531 125.878906 171.894531 128.542969 "/>
<path style=" stroke:none;fill-rule:nonzero;fill:rgb(7.499695%,17.999268%,32.499695%);fill-opacity:1;" d="M 196.53125 122.765625 C 196.53125 122.316406 196.46875 121.828125 196.339844 121.300781 C 196.210938 120.769531 195.960938 120.273438 195.59375 119.808594 C 195.222656 119.34375 194.726563 118.957031 194.101563 118.652344 C 193.476563 118.347656 192.683594 118.195313 191.71875 118.195313 L 185.464844 118.195313 L 185.464844 127.339844 L 191.765625 127.339844 C 193.402344 127.339844 194.605469 126.898438 195.378906 126.015625 C 196.148438 125.132813 196.53125 124.050781 196.53125 122.765625 Z M 185.464844 144.46875 C 185.464844 144.921875 185.390625 145.199219 185.246094 145.3125 C 185.101563 145.425781 184.789063 145.480469 184.308594 145.480469 L 179.257813 145.480469 C 178.871094 145.480469 178.589844 145.410156 178.414063 145.265625 C 178.238281 145.121094 178.148438 144.855469 178.148438 144.46875 L 178.148438 114.683594 C 178.148438 113.785156 178.34375 113.070313 178.726563 112.539063 C 179.113281 112.011719 179.882813 111.746094 181.035156 111.746094 L 192.824219 111.746094 C 194.558594 111.746094 196.121094 112.011719 197.519531 112.539063 C 198.914063 113.070313 200.101563 113.800781 201.078125 114.730469 C 202.058594 115.660156 202.804688 116.769531 203.316406 118.050781 C 203.828125 119.335938 204.085938 120.746094 204.085938 122.285156 C 204.085938 123.121094 203.957031 124.15625 203.703125 125.390625 C 203.445313 126.625 202.890625 127.828125 202.042969 129 C 201.191406 130.171875 199.957031 131.171875 198.335938 132.007813 C 196.714844 132.839844 194.558594 133.257813 191.863281 133.257813 L 185.464844 133.257813 L 185.464844 144.46875 "/>
<path style=" stroke:none;fill-rule:nonzero;fill:rgb(7.499695%,17.999268%,32.499695%);fill-opacity:1;" d="M 233.054688 145.214844 C 232.925781 145.394531 232.671875 145.480469 232.285156 145.480469 L 218.039063 145.480469 C 216.242188 145.480469 214.777344 145.226563 213.636719 144.710938 C 212.5 144.199219 211.59375 143.523438 210.921875 142.691406 C 210.246094 141.855469 209.78125 140.910156 209.523438 139.851563 C 209.265625 138.792969 209.140625 137.71875 209.140625 136.625 L 209.140625 120.648438 C 209.140625 119.496094 209.300781 118.386719 209.621094 117.328125 C 209.941406 116.269531 210.445313 115.324219 211.136719 114.488281 C 211.824219 113.65625 212.730469 112.992188 213.855469 112.492188 C 214.976563 111.996094 216.355469 111.746094 217.992188 111.746094 L 231.804688 111.746094 C 232.1875 111.746094 232.4375 111.828125 232.550781 111.988281 C 232.660156 112.148438 232.71875 112.453125 232.71875 112.902344 L 232.71875 116.992188 C 232.71875 117.410156 232.652344 117.691406 232.527344 117.835938 C 232.398438 117.980469 232.15625 118.050781 231.804688 118.050781 L 219.582031 118.050781 C 218.328125 118.050781 217.496094 118.339844 217.078125 118.917969 C 216.660156 119.496094 216.453125 120.199219 216.453125 121.035156 L 216.453125 124.738281 L 230.265625 124.738281 C 230.648438 124.738281 230.898438 124.820313 231.011719 124.980469 C 231.121094 125.140625 231.179688 125.445313 231.179688 125.894531 L 231.179688 129.648438 C 231.179688 130.035156 231.121094 130.316406 231.011719 130.492188 C 230.898438 130.667969 230.648438 130.753906 230.265625 130.753906 L 216.453125 130.753906 L 216.453125 136.242188 C 216.453125 137.363281 216.71875 138.125 217.246094 138.527344 C 217.777344 138.929688 218.554688 139.128906 219.582031 139.128906 L 232.285156 139.128906 C 232.703125 139.128906 232.96875 139.199219 233.078125 139.34375 C 233.191406 139.488281 233.246094 139.804688 233.246094 140.285156 L 233.246094 144.375 C 233.246094 144.757813 233.183594 145.039063 233.054688 145.214844 "/>
<path style=" stroke:none;fill-rule:nonzero;fill:rgb(7.499695%,17.999268%,32.499695%);fill-opacity:1;" d="M 246.964844 132.535156 L 254.519531 132.535156 L 252.691406 126.402344 L 250.90625 119.496094 L 250.621094 119.496094 L 248.789063 126.402344 Z M 256.25 138.453125 L 245.230469 138.453125 L 243.355469 144.566406 C 243.257813 144.886719 243.121094 145.121094 242.945313 145.265625 C 242.769531 145.410156 242.453125 145.480469 242.007813 145.480469 L 236.375 145.480469 C 236.023438 145.480469 235.804688 145.386719 235.726563 145.191406 C 235.644531 145 235.636719 144.777344 235.703125 144.519531 L 245.710938 114.347656 C 245.871094 113.800781 246.054688 113.359375 246.265625 113.023438 C 246.472656 112.683594 246.714844 112.421875 246.988281 112.226563 C 247.257813 112.035156 247.578125 111.898438 247.949219 111.820313 C 248.316406 111.738281 248.742188 111.699219 249.226563 111.699219 L 252.113281 111.699219 C 252.65625 111.699219 253.121094 111.722656 253.507813 111.769531 C 253.894531 111.820313 254.230469 111.941406 254.519531 112.132813 C 254.808594 112.324219 255.054688 112.597656 255.265625 112.949219 C 255.472656 113.304688 255.671875 113.769531 255.867188 114.347656 L 265.875 144.519531 C 265.9375 144.710938 265.9375 144.921875 265.875 145.144531 C 265.808594 145.367188 265.601563 145.480469 265.25 145.480469 L 259.523438 145.480469 C 259.167969 145.480469 258.871094 145.441406 258.632813 145.359375 C 258.390625 145.28125 258.222656 145.0625 258.128906 144.710938 L 256.25 138.453125 "/>
<path style=" stroke:none;fill-rule:nonzero;fill:rgb(7.499695%,17.999268%,32.499695%);fill-opacity:1;" d="M 277.425781 124.546875 L 277.425781 144.46875 C 277.425781 144.886719 277.351563 145.160156 277.207031 145.289063 C 277.0625 145.417969 276.765625 145.480469 276.316406 145.480469 L 271.265625 145.480469 C 270.878906 145.480469 270.597656 145.410156 270.421875 145.265625 C 270.246094 145.121094 270.15625 144.855469 270.15625 144.46875 L 270.15625 115.117188 C 270.15625 113.863281 270.382813 112.992188 270.832031 112.492188 C 271.28125 111.996094 272.097656 111.746094 273.285156 111.746094 L 275.304688 111.746094 C 275.785156 111.746094 276.195313 111.769531 276.53125 111.820313 C 276.871094 111.867188 277.164063 111.972656 277.425781 112.132813 C 277.679688 112.292969 277.921875 112.515625 278.144531 112.804688 C 278.367188 113.09375 278.628906 113.464844 278.914063 113.914063 L 287.097656 126.375 L 291.234375 132.871094 L 291.476563 132.871094 L 291.476563 112.757813 C 291.476563 112.371094 291.546875 112.109375 291.691406 111.964844 C 291.835938 111.820313 292.132813 111.746094 292.582031 111.746094 L 297.636719 111.746094 C 298.371094 111.746094 298.742188 112.085938 298.742188 112.757813 L 298.742188 142.160156 C 298.742188 143.1875 298.53125 143.996094 298.117188 144.589844 C 297.699219 145.183594 296.867188 145.480469 295.613281 145.480469 L 293.59375 145.480469 C 293.113281 145.480469 292.703125 145.457031 292.367188 145.410156 C 292.027344 145.359375 291.730469 145.257813 291.476563 145.097656 C 291.21875 144.9375 290.976563 144.71875 290.753906 144.445313 C 290.527344 144.175781 290.273438 143.8125 289.984375 143.363281 L 282.285156 131.71875 L 277.664063 124.546875 L 277.425781 124.546875 "/>
<path style=" stroke:none;fill-rule:nonzero;fill:rgb(7.499695%,17.999268%,32.499695%);fill-opacity:1;" d="M 61.738281 182.019531 C 63.113281 182.019531 64.332031 181.855469 65.390625 181.523438 C 66.453125 181.195313 67.441406 180.859375 68.359375 180.515625 C 68.761719 180.34375 69.046875 180.308594 69.21875 180.40625 C 69.390625 180.507813 69.546875 180.714844 69.691406 181.03125 L 71.152344 184.128906 C 71.355469 184.527344 71.425781 184.828125 71.367188 185.03125 C 71.3125 185.230469 71.152344 185.402344 70.894531 185.546875 C 69.347656 186.492188 67.71875 187.128906 66.015625 187.460938 C 64.308594 187.789063 62.625 187.953125 60.964844 187.953125 C 58.613281 187.953125 56.582031 187.601563 54.878906 186.898438 C 53.171875 186.199219 51.769531 185.1875 50.664063 183.867188 C 49.558594 182.550781 48.742188 180.9375 48.214844 179.03125 C 47.683594 177.125 47.417969 174.984375 47.417969 172.601563 C 47.417969 170.253906 47.753906 168.117188 48.429688 166.195313 C 49.101563 164.277344 50.039063 162.628906 51.246094 161.25 C 52.449219 159.875 53.902344 158.816406 55.609375 158.070313 C 57.316406 157.324219 59.199219 156.949219 61.265625 156.949219 C 62.726563 156.949219 64.160156 157.074219 65.5625 157.316406 C 66.96875 157.558594 68.34375 158.054688 69.691406 158.800781 C 70.007813 158.972656 70.191406 159.144531 70.25 159.316406 C 70.308594 159.488281 70.234375 159.816406 70.035156 160.304688 L 68.703125 163.273438 C 68.558594 163.675781 68.410156 163.917969 68.25 164.003906 C 68.09375 164.089844 67.8125 164.058594 67.414063 163.917969 C 66.382813 163.546875 65.417969 163.265625 64.53125 163.078125 C 63.644531 162.894531 62.652344 162.800781 61.566406 162.800781 C 60.390625 162.800781 59.351563 163.050781 58.449219 163.550781 C 57.542969 164.054688 56.785156 164.742188 56.167969 165.613281 C 55.550781 166.488281 55.085938 167.523438 54.769531 168.710938 C 54.457031 169.902344 54.296875 171.199219 54.296875 172.601563 C 54.296875 174.007813 54.417969 175.285156 54.664063 176.429688 C 54.90625 177.578125 55.324219 178.566406 55.910156 179.398438 C 56.496094 180.226563 57.265625 180.871094 58.210938 181.332031 C 59.15625 181.789063 60.332031 182.019531 61.738281 182.019531 "/>
<path style=" stroke:none;fill-rule:nonzero;fill:rgb(7.499695%,17.999268%,32.499695%);fill-opacity:1;" d="M 100.5 187.308594 C 100.371094 187.425781 100.09375 187.480469 99.660156 187.480469 L 95.148438 187.480469 C 94.773438 187.480469 94.515625 187.414063 94.371094 187.289063 C 94.230469 187.160156 94.15625 186.921875 94.15625 186.578125 L 94.15625 174.539063 L 82.503906 174.539063 L 82.503906 186.578125 C 82.503906 186.949219 82.441406 187.195313 82.3125 187.308594 C 82.183594 187.425781 81.902344 187.480469 81.472656 187.480469 L 76.914063 187.480469 C 76.570313 187.480469 76.320313 187.414063 76.164063 187.289063 C 76.003906 187.160156 75.925781 186.921875 75.925781 186.578125 L 75.925781 158.285156 C 75.925781 157.941406 76.003906 157.703125 76.164063 157.574219 C 76.320313 157.445313 76.570313 157.382813 76.914063 157.382813 L 81.472656 157.382813 C 81.902344 157.382813 82.183594 157.4375 82.3125 157.554688 C 82.441406 157.667969 82.503906 157.910156 82.503906 158.285156 L 82.503906 168.992188 L 94.15625 168.992188 L 94.15625 158.285156 C 94.15625 157.941406 94.230469 157.703125 94.371094 157.574219 C 94.515625 157.445313 94.773438 157.382813 95.148438 157.382813 L 99.660156 157.382813 C 100.09375 157.382813 100.371094 157.4375 100.5 157.554688 C 100.628906 157.667969 100.695313 157.910156 100.695313 158.285156 L 100.695313 186.578125 C 100.695313 186.949219 100.628906 187.195313 100.5 187.308594 "/>
<path style=" stroke:none;fill-rule:nonzero;fill:rgb(7.499695%,17.999268%,32.499695%);fill-opacity:1;" d="M 114.582031 175.914063 L 121.335938 175.914063 L 119.699219 170.433594 L 118.109375 164.261719 L 117.851563 164.261719 L 116.21875 170.433594 Z M 122.882813 181.203125 L 113.035156 181.203125 L 111.359375 186.664063 C 111.273438 186.949219 111.148438 187.160156 110.992188 187.289063 C 110.835938 187.414063 110.554688 187.480469 110.152344 187.480469 L 105.121094 187.480469 C 104.808594 187.480469 104.613281 187.394531 104.542969 187.222656 C 104.472656 187.050781 104.464844 186.851563 104.519531 186.621094 L 113.464844 159.660156 C 113.609375 159.171875 113.773438 158.777344 113.960938 158.476563 C 114.144531 158.175781 114.359375 157.941406 114.605469 157.769531 C 114.847656 157.597656 115.136719 157.472656 115.464844 157.402344 C 115.792969 157.332031 116.175781 157.296875 116.605469 157.296875 L 119.183594 157.296875 C 119.671875 157.296875 120.085938 157.316406 120.429688 157.359375 C 120.773438 157.402344 121.074219 157.511719 121.335938 157.683594 C 121.59375 157.855469 121.8125 158.097656 122 158.414063 C 122.1875 158.726563 122.367188 159.144531 122.539063 159.660156 L 131.480469 186.621094 C 131.539063 186.792969 131.539063 186.980469 131.480469 187.179688 C 131.425781 187.382813 131.238281 187.480469 130.921875 187.480469 L 125.804688 187.480469 C 125.492188 187.480469 125.226563 187.445313 125.011719 187.371094 C 124.796875 187.300781 124.644531 187.109375 124.558594 186.792969 L 122.882813 181.203125 "/>
<path style=" stroke:none;fill-rule:nonzero;fill:rgb(7.499695%,17.999268%,32.499695%);fill-opacity:1;" d="M 160.078125 170.152344 L 159.820313 170.152344 L 158.054688 174.152344 L 154.488281 182.0625 C 154.171875 182.808594 153.847656 183.308594 153.519531 183.566406 C 153.1875 183.824219 152.695313 183.953125 152.035156 183.953125 L 149.671875 183.953125 C 148.953125 183.953125 148.460938 183.824219 148.1875 183.566406 C 147.914063 183.308594 147.605469 182.808594 147.261719 182.0625 L 144.597656 176.472656 L 141.929688 170.667969 L 141.671875 170.667969 L 141.671875 186.621094 C 141.671875 187.023438 141.601563 187.265625 141.457031 187.351563 C 141.3125 187.4375 141.054688 187.480469 140.683594 187.480469 L 136.296875 187.480469 C 135.980469 187.480469 135.738281 187.4375 135.566406 187.351563 C 135.394531 187.265625 135.308594 187.023438 135.308594 186.621094 L 135.308594 160.347656 C 135.308594 159.257813 135.515625 158.484375 135.933594 158.027344 C 136.347656 157.566406 137.058594 157.339844 138.066406 157.339844 L 140.5625 157.339844 C 141.367188 157.339844 141.960938 157.488281 142.347656 157.789063 C 142.734375 158.089844 143.101563 158.613281 143.445313 159.359375 L 148.140625 169.851563 L 150.808594 175.957031 L 150.980469 175.957031 L 153.910156 169.25 L 158.304688 159.445313 C 158.644531 158.671875 159.027344 158.128906 159.441406 157.8125 C 159.859375 157.496094 160.527344 157.339844 161.445313 157.339844 L 163.554688 157.339844 C 164.472656 157.339844 165.164063 157.53125 165.621094 157.917969 C 166.082031 158.304688 166.3125 159.042969 166.3125 160.132813 L 166.3125 186.621094 C 166.3125 187.023438 166.238281 187.265625 166.097656 187.351563 C 165.949219 187.4375 165.691406 187.480469 165.316406 187.480469 L 161.03125 187.480469 C 160.710938 187.480469 160.472656 187.4375 160.316406 187.351563 C 160.15625 187.265625 160.078125 187.023438 160.078125 186.621094 L 160.078125 170.152344 "/>
<path style=" stroke:none;fill-rule:nonzero;fill:rgb(7.499695%,17.999268%,32.499695%);fill-opacity:1;" d="M 189.144531 167.183594 C 189.144531 166.785156 189.085938 166.347656 188.972656 165.871094 C 188.859375 165.398438 188.636719 164.957031 188.304688 164.539063 C 187.976563 164.125 187.53125 163.78125 186.972656 163.507813 C 186.414063 163.234375 185.703125 163.101563 184.84375 163.101563 L 179.253906 163.101563 L 179.253906 171.269531 L 184.886719 171.269531 C 186.351563 171.269531 187.425781 170.875 188.113281 170.085938 C 188.800781 169.300781 189.144531 168.332031 189.144531 167.183594 Z M 179.253906 186.578125 C 179.253906 186.980469 179.191406 187.230469 179.0625 187.332031 C 178.933594 187.429688 178.652344 187.480469 178.222656 187.480469 L 173.707031 187.480469 C 173.363281 187.480469 173.113281 187.414063 172.953125 187.289063 C 172.796875 187.160156 172.71875 186.921875 172.71875 186.578125 L 172.71875 159.960938 C 172.71875 159.160156 172.890625 158.519531 173.234375 158.046875 C 173.578125 157.574219 174.265625 157.339844 175.300781 157.339844 L 185.835938 157.339844 C 187.382813 157.339844 188.78125 157.574219 190.027344 158.046875 C 191.273438 158.519531 192.335938 159.171875 193.207031 160.003906 C 194.082031 160.835938 194.75 161.824219 195.207031 162.972656 C 195.664063 164.117188 195.894531 165.378906 195.894531 166.753906 C 195.894531 167.5 195.78125 168.425781 195.550781 169.527344 C 195.320313 170.632813 194.828125 171.707031 194.070313 172.753906 C 193.308594 173.800781 192.203125 174.695313 190.757813 175.441406 C 189.308594 176.1875 187.382813 176.558594 184.972656 176.558594 L 179.253906 176.558594 L 179.253906 186.578125 "/>
<path style=" stroke:none;fill-rule:nonzero;fill:rgb(7.499695%,17.999268%,32.499695%);fill-opacity:1;" d="M 207.355469 187.308594 C 207.226563 187.425781 206.945313 187.480469 206.515625 187.480469 L 201.960938 187.480469 C 201.613281 187.480469 201.363281 187.414063 201.207031 187.289063 C 201.050781 187.160156 200.96875 186.921875 200.96875 186.578125 L 200.96875 158.285156 C 200.96875 157.941406 201.050781 157.703125 201.207031 157.574219 C 201.363281 157.445313 201.613281 157.382813 201.960938 157.382813 L 206.515625 157.382813 C 206.945313 157.382813 207.226563 157.4375 207.355469 157.554688 C 207.484375 157.667969 207.550781 157.910156 207.550781 158.285156 L 207.550781 186.578125 C 207.550781 186.949219 207.484375 187.195313 207.355469 187.308594 "/>
<path style=" stroke:none;fill-rule:nonzero;fill:rgb(7.499695%,17.999268%,32.499695%);fill-opacity:1;" d="M 233.519531 172.472656 C 233.519531 171.183594 233.425781 169.953125 233.238281 168.777344 C 233.054688 167.601563 232.714844 166.570313 232.230469 165.679688 C 231.742188 164.789063 231.082031 164.082031 230.25 163.550781 C 229.417969 163.019531 228.34375 162.757813 227.027344 162.757813 C 225.9375 162.757813 224.984375 163.007813 224.167969 163.507813 C 223.351563 164.011719 222.667969 164.691406 222.125 165.550781 C 221.578125 166.410156 221.179688 167.414063 220.921875 168.5625 C 220.664063 169.707031 220.535156 170.925781 220.535156 172.214844 C 220.535156 173.734375 220.640625 175.097656 220.855469 176.300781 C 221.070313 177.503906 221.429688 178.535156 221.929688 179.398438 C 222.433594 180.257813 223.097656 180.914063 223.929688 181.375 C 224.761719 181.835938 225.808594 182.0625 227.070313 182.0625 C 228.300781 182.0625 229.332031 181.796875 230.164063 181.269531 C 230.996094 180.738281 231.65625 180.035156 232.144531 179.160156 C 232.628906 178.285156 232.980469 177.269531 233.195313 176.105469 C 233.410156 174.945313 233.519531 173.734375 233.519531 172.472656 Z M 240.355469 172.34375 C 240.355469 174.808594 240.089844 177.003906 239.5625 178.925781 C 239.03125 180.84375 238.207031 182.480469 237.089844 183.824219 C 235.96875 185.175781 234.566406 186.199219 232.875 186.898438 C 231.183594 187.601563 229.175781 187.953125 226.855469 187.953125 C 222.410156 187.953125 219.105469 186.605469 216.941406 183.910156 C 214.777344 181.21875 213.699219 177.40625 213.699219 172.472656 C 213.699219 170.066406 214.003906 167.894531 214.621094 165.960938 C 215.238281 164.023438 216.117188 162.390625 217.265625 161.058594 C 218.410156 159.726563 219.800781 158.699219 221.4375 157.984375 C 223.070313 157.265625 224.917969 156.90625 226.984375 156.90625 C 229.21875 156.90625 231.175781 157.265625 232.851563 157.984375 C 234.53125 158.699219 235.921875 159.726563 237.023438 161.058594 C 238.128906 162.390625 238.960938 164.011719 239.519531 165.914063 C 240.078125 167.824219 240.355469 169.964844 240.355469 172.34375 "/>
<path style=" stroke:none;fill-rule:nonzero;fill:rgb(7.499695%,17.999268%,32.499695%);fill-opacity:1;" d="M 252.441406 168.777344 L 252.441406 186.578125 C 252.441406 186.949219 252.375 187.195313 252.246094 187.308594 C 252.117188 187.425781 251.851563 187.480469 251.449219 187.480469 L 246.9375 187.480469 C 246.59375 187.480469 246.339844 187.414063 246.183594 187.289063 C 246.027344 187.160156 245.945313 186.921875 245.945313 186.578125 L 245.945313 160.347656 C 245.945313 159.230469 246.148438 158.449219 246.550781 158.003906 C 246.949219 157.558594 247.679688 157.339844 248.742188 157.339844 L 250.546875 157.339844 C 250.976563 157.339844 251.34375 157.359375 251.644531 157.402344 C 251.945313 157.445313 252.210938 157.539063 252.441406 157.683594 C 252.667969 157.824219 252.882813 158.027344 253.085938 158.285156 C 253.285156 158.542969 253.515625 158.871094 253.773438 159.273438 L 261.082031 170.410156 L 264.78125 176.214844 L 264.996094 176.214844 L 264.996094 158.242188 C 264.996094 157.898438 265.0625 157.660156 265.191406 157.53125 C 265.320313 157.402344 265.582031 157.339844 265.984375 157.339844 L 270.5 157.339844 C 271.160156 157.339844 271.488281 157.640625 271.488281 158.242188 L 271.488281 184.515625 C 271.488281 185.433594 271.300781 186.15625 270.929688 186.683594 C 270.558594 187.214844 269.8125 187.480469 268.695313 187.480469 L 266.886719 187.480469 C 266.457031 187.480469 266.09375 187.460938 265.789063 187.414063 C 265.492188 187.371094 265.226563 187.28125 264.996094 187.136719 C 264.765625 186.992188 264.550781 186.800781 264.351563 186.558594 C 264.148438 186.3125 263.921875 185.992188 263.664063 185.589844 L 256.78125 175.183594 L 252.65625 168.777344 L 252.441406 168.777344 "/>
<path style=" stroke:none;fill-rule:nonzero;fill:rgb(7.499695%,17.999268%,32.499695%);fill-opacity:1;" d="M 277.378906 165.59375 C 277.378906 164.390625 277.585938 163.257813 278.003906 162.195313 C 278.417969 161.136719 279.039063 160.210938 279.871094 159.421875 C 280.703125 158.636719 281.765625 158.011719 283.054688 157.554688 C 284.34375 157.09375 285.863281 156.863281 287.613281 156.863281 C 288.414063 156.863281 289.253906 156.90625 290.128906 156.992188 C 291.003906 157.078125 291.863281 157.210938 292.707031 157.382813 C 293.554688 157.554688 294.363281 157.761719 295.136719 158.003906 C 295.910156 158.246094 296.613281 158.527344 297.246094 158.84375 C 297.589844 159.015625 297.78125 159.179688 297.824219 159.335938 C 297.867188 159.496094 297.820313 159.789063 297.675781 160.21875 L 296.558594 163.445313 C 296.414063 163.847656 296.269531 164.074219 296.128906 164.132813 C 295.984375 164.191406 295.742188 164.175781 295.394531 164.089844 C 294.046875 163.6875 292.707031 163.359375 291.375 163.101563 C 290.042969 162.84375 288.789063 162.714844 287.613281 162.714844 C 286.351563 162.714844 285.464844 162.941406 284.949219 163.402344 C 284.429688 163.859375 284.171875 164.417969 284.171875 165.078125 C 284.171875 165.449219 284.257813 165.796875 284.429688 166.109375 C 284.601563 166.425781 284.882813 166.734375 285.269531 167.035156 C 285.65625 167.335938 286.171875 167.644531 286.816406 167.960938 C 287.460938 168.273438 288.257813 168.617188 289.203125 168.992188 C 290.664063 169.566406 292.011719 170.144531 293.246094 170.730469 C 294.480469 171.320313 295.53125 171.988281 296.40625 172.730469 C 297.28125 173.476563 297.96875 174.351563 298.472656 175.355469 C 298.972656 176.359375 299.222656 177.5625 299.222656 178.96875 C 299.222656 180.488281 298.949219 181.804688 298.40625 182.921875 C 297.863281 184.039063 297.101563 184.972656 296.128906 185.71875 C 295.152344 186.464844 293.96875 187.023438 292.578125 187.394531 C 291.1875 187.765625 289.660156 187.953125 288 187.953125 C 287.082031 187.953125 286.121094 187.902344 285.117188 187.804688 C 284.117188 187.703125 283.117188 187.546875 282.132813 187.332031 C 281.140625 187.113281 280.175781 186.835938 279.226563 186.492188 C 278.28125 186.148438 277.40625 185.734375 276.605469 185.246094 C 276.375 185.101563 276.238281 184.945313 276.195313 184.773438 C 276.152344 184.601563 276.203125 184.328125 276.347656 183.953125 L 277.808594 180.515625 C 277.953125 180.171875 278.109375 179.972656 278.28125 179.914063 C 278.453125 179.855469 278.699219 179.898438 279.011719 180.042969 C 279.585938 180.273438 280.21875 180.507813 280.90625 180.75 C 281.59375 180.996094 282.304688 181.210938 283.03125 181.394531 C 283.765625 181.582031 284.511719 181.738281 285.269531 181.871094 C 286.027344 181.996094 286.78125 182.0625 287.527344 182.0625 C 288.414063 182.0625 289.160156 181.976563 289.761719 181.804688 C 290.367188 181.632813 290.851563 181.410156 291.226563 181.140625 C 291.597656 180.867188 291.855469 180.550781 292 180.191406 C 292.140625 179.835938 292.214844 179.453125 292.214844 179.054688 C 292.214844 178.621094 292.136719 178.234375 291.976563 177.890625 C 291.820313 177.546875 291.5625 177.210938 291.203125 176.882813 C 290.84375 176.550781 290.359375 176.234375 289.742188 175.933594 C 289.125 175.632813 288.359375 175.3125 287.441406 174.96875 C 285.921875 174.394531 284.546875 173.808594 283.3125 173.203125 C 282.078125 172.601563 281.019531 171.9375 280.132813 171.207031 C 279.242188 170.476563 278.5625 169.65625 278.089844 168.753906 C 277.617188 167.851563 277.378906 166.796875 277.378906 165.59375 "/>
<path style=" stroke:none;fill-rule:nonzero;fill:rgb(83.898926%,88.999939%,91.398621%);fill-opacity:1;" d="M 171.894531 25.335938 C 126.136719 25.335938 99.027344 49.34375 89.941406 59.050781 C 87.640625 61.507813 88.484375 64.914063 89.945313 66.375 C 91.40625 67.839844 123.808594 99.339844 125.566406 100.753906 C 127.320313 102.171875 129.777344 102.738281 131.503906 100.839844 C 136.683594 95.144531 149.808594 83.753906 171.894531 83.753906 C 193.921875 83.753906 207.03125 95.085938 212.242188 100.792969 C 214.804688 103.355469 217.78125 101.175781 217.78125 101.175781 C 217.78125 101.175781 253.289063 66.789063 254.867188 65.386719 C 256.445313 63.980469 256.792969 61.480469 254.992188 59.539063 C 246.664063 50.570313 219.046875 25.335938 171.894531 25.335938 "/>
<path style=" stroke:none;fill-rule:nonzero;fill:rgb(12.199402%,19.198608%,38.398743%);fill-opacity:1;" d="M 172.773438 33.070313 C 201.5 33.039063 227.492188 44.847656 246.070313 63.863281 L 249.039063 60.992188 C 229.664063 41.148438 202.65625 28.882813 172.753906 28.914063 C 142.871094 28.925781 115.886719 41.234375 96.527344 61.101563 L 99.503906 63.980469 C 118.109375 44.921875 144.054688 33.082031 172.773438 33.070313 "/>
<path style=" stroke:none;fill-rule:nonzero;fill:rgb(12.199402%,19.198608%,38.398743%);fill-opacity:1;" d="M 224.640625 88.597656 L 232.300781 61.929688 C 232.59375 60.960938 232.695313 60 231.480469 59.039063 L 230.425781 58.246094 C 229.171875 57.316406 228.273438 57.664063 227.421875 58.230469 L 204.199219 73.339844 L 209.105469 76.074219 L 225.863281 65.195313 L 223.253906 74.378906 L 221.050781 72.675781 L 216.613281 75.550781 L 221.738281 79.484375 L 220.265625 84.632813 L 224.640625 88.597656 "/>
<path style=" stroke:none;fill-rule:nonzero;fill:rgb(12.199402%,19.198608%,38.398743%);fill-opacity:1;" d="M 172.796875 76.773438 C 190.40625 76.761719 206.179688 84.519531 216.980469 96.78125 L 220.070313 94.066406 C 208.550781 80.925781 191.605469 72.648438 172.796875 72.660156 C 153.964844 72.660156 137.050781 80.980469 125.5625 94.097656 L 128.660156 96.835938 C 139.425781 84.558594 155.1875 76.792969 172.796875 76.773438 "/>
<path style=" stroke:none;fill-rule:nonzero;fill:rgb(12.199402%,19.198608%,38.398743%);fill-opacity:1;" d="M 128.628906 76.714844 C 127.210938 77.851563 125.488281 78.46875 123.933594 78.277344 C 122.03125 78.066406 120.847656 77.292969 119.019531 75.058594 L 109.785156 63.710938 L 105.679688 67.027344 L 115.796875 79.453125 C 117.9375 82.0625 120.34375 83.449219 123.128906 83.699219 C 126.328125 83.996094 129.164063 83.042969 131.96875 80.785156 C 134.75 78.484375 136.242188 75.90625 136.617188 72.765625 C 136.921875 69.929688 136.070313 67.300781 133.964844 64.695313 L 123.835938 52.261719 L 119.722656 55.601563 L 128.988281 66.96875 C 130.800781 69.183594 131.324219 70.53125 131.140625 72.425781 C 131.015625 73.976563 130.078125 75.539063 128.628906 76.714844 "/>
<path style=" stroke:none;fill-rule:nonzero;fill:rgb(12.199402%,19.198608%,38.398743%);fill-opacity:1;" d="M 195.359375 47.40625 L 204.882813 49.90625 L 206.136719 45.09375 L 196.308594 42.507813 C 191.769531 41.324219 187.539063 42.425781 186.0625 48.066406 L 181.707031 64.679688 C 181.402344 65.839844 182.027344 66.777344 183.136719 67.089844 L 186.367188 67.914063 L 189.148438 57.171875 L 200.980469 60.285156 L 202.230469 55.535156 L 190.394531 52.429688 L 191.035156 49.960938 C 191.738281 47.1875 192.878906 46.789063 195.359375 47.40625 "/>
<path style=" stroke:none;fill-rule:nonzero;fill:rgb(12.199402%,19.198608%,38.398743%);fill-opacity:1;" d="M 162.796875 39.691406 L 146.464844 43.011719 C 145.332031 43.242188 144.636719 44.117188 144.894531 45.355469 L 148.34375 62.164063 C 149.480469 67.914063 153.675781 69.210938 158.28125 68.257813 L 168.210938 66.21875 L 167.21875 61.351563 L 157.5625 63.304688 C 155.105469 63.808594 153.953125 63.335938 153.425781 60.539063 L 152.890625 58.039063 L 164.886719 55.574219 L 163.933594 50.789063 L 151.921875 53.203125 L 150.6875 47.253906 L 163.816406 44.558594 L 162.796875 39.691406 "/>
<path style=" stroke:none;fill-rule:nonzero;fill:rgb(12.199402%,19.198608%,38.398743%);fill-opacity:1;" d="M 172.773438 33.070313 C 201.5 33.039063 227.492188 44.847656 246.070313 63.863281 L 249.039063 60.992188 C 229.664063 41.148438 202.65625 28.882813 172.753906 28.914063 C 142.871094 28.925781 115.886719 41.234375 96.527344 61.101563 L 99.503906 63.980469 C 118.109375 44.921875 144.054688 33.082031 172.773438 33.070313 "/>
<path style=" stroke:none;fill-rule:nonzero;fill:rgb(12.199402%,19.198608%,38.398743%);fill-opacity:1;" d="M 224.640625 88.597656 L 232.300781 61.929688 C 232.59375 60.960938 232.695313 60 231.480469 59.039063 L 230.425781 58.246094 C 229.171875 57.316406 228.273438 57.664063 227.421875 58.230469 L 204.199219 73.339844 L 209.105469 76.074219 L 225.863281 65.195313 L 223.253906 74.378906 L 221.050781 72.675781 L 216.613281 75.550781 L 221.738281 79.484375 L 220.265625 84.632813 L 224.640625 88.597656 "/>
<path style=" stroke:none;fill-rule:nonzero;fill:rgb(12.199402%,19.198608%,38.398743%);fill-opacity:1;" d="M 172.796875 76.773438 C 190.40625 76.761719 206.179688 84.519531 216.980469 96.78125 L 220.070313 94.066406 C 208.550781 80.925781 191.605469 72.648438 172.796875 72.660156 C 153.964844 72.660156 137.050781 80.980469 125.5625 94.097656 L 128.660156 96.835938 C 139.425781 84.558594 155.1875 76.792969 172.796875 76.773438 "/>
<path style=" stroke:none;fill-rule:nonzero;fill:rgb(12.199402%,19.198608%,38.398743%);fill-opacity:1;" d="M 128.628906 76.714844 C 127.210938 77.851563 125.488281 78.46875 123.933594 78.277344 C 122.03125 78.066406 120.847656 77.292969 119.019531 75.058594 L 109.785156 63.710938 L 105.679688 67.027344 L 115.796875 79.453125 C 117.9375 82.0625 120.34375 83.449219 123.128906 83.699219 C 126.328125 83.996094 129.164063 83.042969 131.96875 80.785156 C 134.75 78.484375 136.242188 75.90625 136.617188 72.765625 C 136.921875 69.929688 136.070313 67.300781 133.964844 64.695313 L 123.835938 52.261719 L 119.722656 55.601563 L 128.988281 66.96875 C 130.800781 69.183594 131.324219 70.53125 131.140625 72.425781 C 131.015625 73.976563 130.078125 75.539063 128.628906 76.714844 "/>
<path style=" stroke:none;fill-rule:nonzero;fill:rgb(12.199402%,19.198608%,38.398743%);fill-opacity:1;" d="M 195.359375 47.40625 L 204.882813 49.90625 L 206.136719 45.09375 L 196.308594 42.507813 C 191.769531 41.324219 187.539063 42.425781 186.0625 48.066406 L 181.707031 64.679688 C 181.402344 65.839844 182.027344 66.777344 183.136719 67.089844 L 186.367188 67.914063 L 189.148438 57.171875 L 200.980469 60.285156 L 202.230469 55.535156 L 190.394531 52.429688 L 191.035156 49.960938 C 191.738281 47.1875 192.878906 46.789063 195.359375 47.40625 "/>
<path style=" stroke:none;fill-rule:nonzero;fill:rgb(12.199402%,19.198608%,38.398743%);fill-opacity:1;" d="M 162.796875 39.691406 L 146.464844 43.011719 C 145.332031 43.242188 144.636719 44.117188 144.894531 45.355469 L 148.34375 62.164063 C 149.480469 67.914063 153.675781 69.210938 158.28125 68.257813 L 168.210938 66.21875 L 167.21875 61.351563 L 157.5625 63.304688 C 155.105469 63.808594 153.953125 63.335938 153.425781 60.539063 L 152.890625 58.039063 L 164.886719 55.574219 L 163.933594 50.789063 L 151.921875 53.203125 L 150.6875 47.253906 L 163.816406 44.558594 L 162.796875 39.691406 "/>
</g>
</svg>
